<svg xmlns="http://www.w3.org/2000/svg" xmlns:xlink="http://www.w3.org/1999/xlink" width="1920" zoomAndPan="magnify" viewBox="0 0 1440 540.000001" height="720" preserveAspectRatio="xMidYMid meet" version="1.0"><defs><g/><clipPath id="7e885c75e6"><path d="M 313 449.996094 L 1127 449.996094 L 1127 463.46875 L 313 463.46875 Z M 313 449.996094 " clip-rule="nonzero"/></clipPath></defs><g clip-path="url(#7e885c75e6)"><path fill="#e8de81" d="M 1126.136719 456.691406 C 1126.136719 460.390625 1123.140625 463.386719 1119.441406 463.386719 L 320.550781 463.386719 C 316.851562 463.386719 313.855469 460.390625 313.855469 456.691406 C 313.855469 452.996094 316.851562 449.996094 320.550781 449.996094 L 1119.441406 449.996094 C 1123.140625 449.996094 1126.136719 452.996094 1126.136719 456.691406 Z M 1126.136719 456.691406 " fill-opacity="1" fill-rule="nonzero"/></g><g fill="#1a180d" fill-opacity="1"><g transform="translate(169.469716, 429.626373)"><g><path d="M 15.46875 -42 L 25.765625 -11 L 26.15625 -11 L 36.921875 -44.3125 L 32.234375 -44.609375 L 32.234375 -51.15625 L 49.921875 -51.15625 L 49.921875 -44.921875 L 47.390625 -44.6875 C 46.722656 -44.632812 46.234375 -44.441406 45.921875 -44.109375 C 45.609375 -43.773438 45.300781 -43.203125 45 -42.390625 L 30.46875 0 L 20.46875 0 L 4.765625 -44.390625 L 0.390625 -44.609375 L 0.390625 -51.15625 L 20.234375 -51.15625 L 20.234375 -44.921875 L 17.6875 -44.6875 C 16.101562 -44.582031 15.3125 -43.96875 15.3125 -42.84375 C 15.3125 -42.582031 15.363281 -42.300781 15.46875 -42 Z M 15.46875 -42 "/></g></g></g><g fill="#1a180d" fill-opacity="1"><g transform="translate(219.763412, 429.626373)"><g><path d="M 20.234375 -5.609375 C 25.816406 -5.609375 28.609375 -10.125 28.609375 -19.15625 C 28.609375 -23.71875 27.976562 -27.175781 26.71875 -29.53125 C 25.46875 -31.894531 23.367188 -33.078125 20.421875 -33.078125 C 17.472656 -33.078125 15.304688 -31.945312 13.921875 -29.6875 C 12.535156 -27.4375 11.84375 -24.363281 11.84375 -20.46875 C 11.84375 -13.226562 13.175781 -8.6875 15.84375 -6.84375 C 17.019531 -6.019531 18.484375 -5.609375 20.234375 -5.609375 Z M 2.53125 -19.390625 C 2.53125 -23.179688 3.09375 -26.472656 4.21875 -29.265625 C 5.351562 -32.066406 6.867188 -34.207031 8.765625 -35.6875 C 12.410156 -38.457031 16.4375 -39.84375 20.84375 -39.84375 C 23.925781 -39.84375 26.53125 -39.34375 28.65625 -38.34375 C 30.78125 -37.34375 32.445312 -36.1875 33.65625 -34.875 C 34.863281 -33.570312 35.890625 -31.675781 36.734375 -29.1875 C 37.578125 -26.707031 38 -23.773438 38 -20.390625 C 38 -13.304688 36.28125 -7.941406 32.84375 -4.296875 C 29.40625 -0.660156 25.003906 1.15625 19.640625 1.15625 C 14.285156 1.15625 10.09375 -0.570312 7.0625 -4.03125 C 4.039062 -7.5 2.53125 -12.617188 2.53125 -19.390625 Z M 2.53125 -19.390625 "/></g></g></g><g fill="#1a180d" fill-opacity="1"><g transform="translate(260.367538, 429.626373)"><g><path d="M 11.078125 -46.84375 L 16.078125 -46.84375 L 16.078125 -38.6875 L 26.3125 -38.6875 L 25.53125 -32.234375 L 16.078125 -32.234375 L 16.078125 -12 C 16.078125 -9.738281 16.484375 -8.160156 17.296875 -7.265625 C 18.117188 -6.367188 19.390625 -5.921875 21.109375 -5.921875 C 22.828125 -5.921875 24.5625 -6.457031 26.3125 -7.53125 L 28.609375 -1.609375 C 26.046875 0.179688 22.789062 1.078125 18.84375 1.078125 C 16.539062 1.078125 14.59375 0.78125 13 0.1875 C 11.40625 -0.394531 10.222656 -1.046875 9.453125 -1.765625 C 8.691406 -2.484375 8.101562 -3.535156 7.6875 -4.921875 C 7.28125 -6.304688 7.050781 -7.394531 7 -8.1875 C 6.945312 -8.988281 6.921875 -10.15625 6.921875 -11.6875 L 6.921875 -32.234375 L 1.46875 -32.234375 L 2.234375 -37.84375 C 4.640625 -38.050781 6.457031 -38.910156 7.6875 -40.421875 C 8.914062 -41.929688 10.046875 -44.070312 11.078125 -46.84375 Z M 11.078125 -46.84375 "/></g></g></g><g fill="#1a180d" fill-opacity="1"><g transform="translate(289.359451, 429.626373)"><g><path d="M 7.3125 -8.609375 L 7.3125 -29.921875 C 7.3125 -30.742188 7.171875 -31.320312 6.890625 -31.65625 C 6.609375 -31.988281 6.109375 -32.179688 5.390625 -32.234375 L 2.15625 -32.46875 L 2.15625 -38.6875 L 15.15625 -38.6875 L 15.15625 -32.921875 C 16.070312 -34.921875 17.503906 -36.570312 19.453125 -37.875 C 21.410156 -39.1875 23.65625 -39.84375 26.1875 -39.84375 C 28.726562 -39.84375 31.15625 -39.28125 33.46875 -38.15625 L 33.46875 -26.6875 L 26.3125 -26.15625 L 26.3125 -29.6875 C 26.3125 -30.71875 26.050781 -31.359375 25.53125 -31.609375 C 24.96875 -31.867188 24.28125 -32 23.46875 -32 C 21.414062 -32 19.734375 -31.265625 18.421875 -29.796875 C 17.117188 -28.335938 16.46875 -26.484375 16.46875 -24.234375 L 16.46875 -6.390625 L 23.15625 -6.078125 L 23.15625 0 L 2.53125 0 L 2.53125 -5.84375 L 5.078125 -6.078125 C 5.847656 -6.179688 6.410156 -6.398438 6.765625 -6.734375 C 7.128906 -7.066406 7.3125 -7.691406 7.3125 -8.609375 Z M 7.3125 -8.609375 "/></g></g></g><g fill="#1a180d" fill-opacity="1"><g transform="translate(324.888022, 429.626373)"><g><path d="M 21.84375 -39.84375 C 25.6875 -39.84375 28.738281 -38.90625 31 -37.03125 C 33.257812 -35.164062 34.390625 -32.539062 34.390625 -29.15625 C 34.390625 -26.894531 33.898438 -24.90625 32.921875 -23.1875 C 31.953125 -21.46875 30.75 -20.117188 29.3125 -19.140625 C 27.875 -18.171875 26.128906 -17.378906 24.078125 -16.765625 C 20.640625 -15.742188 16.769531 -15.234375 12.46875 -15.234375 C 12.613281 -12.515625 13.457031 -10.320312 15 -8.65625 C 16.539062 -6.988281 18.898438 -6.15625 22.078125 -6.15625 C 25.253906 -6.15625 28.429688 -7.28125 31.609375 -9.53125 L 34.53125 -3.3125 C 33.507812 -2.382812 31.78125 -1.429688 29.34375 -0.453125 C 26.90625 0.515625 24.125 1 21 1 C 14.738281 1 10.144531 -0.726562 7.21875 -4.1875 C 4.300781 -7.65625 2.84375 -12.410156 2.84375 -18.453125 C 2.84375 -24.503906 4.507812 -29.582031 7.84375 -33.6875 C 11.175781 -37.789062 15.84375 -39.84375 21.84375 -39.84375 Z M 18.34375 -22.265625 C 20.21875 -22.597656 21.945312 -23.34375 23.53125 -24.5 C 25.125 -25.65625 25.921875 -27.023438 25.921875 -28.609375 C 25.921875 -31.742188 24.382812 -33.3125 21.3125 -33.3125 C 18.4375 -33.3125 16.226562 -32.171875 14.6875 -29.890625 C 13.15625 -27.609375 12.3125 -24.875 12.15625 -21.6875 C 14.40625 -21.738281 16.46875 -21.929688 18.34375 -22.265625 Z M 18.34375 -22.265625 "/></g></g></g><g fill="#1a180d" fill-opacity="1"><g transform="translate(362.108465, 429.626373)"><g/></g></g><g fill="#1a180d" fill-opacity="1"><g transform="translate(377.488788, 429.626373)"><g><path d="M 2.078125 -32.53125 L 2.078125 -38.6875 L 15.078125 -38.6875 L 15.078125 -33.6875 C 16.410156 -35.582031 18.175781 -37.082031 20.375 -38.1875 C 22.582031 -39.289062 24.96875 -39.84375 27.53125 -39.84375 C 31.4375 -39.84375 34.453125 -38.726562 36.578125 -36.5 C 38.703125 -34.269531 39.765625 -30.925781 39.765625 -26.46875 L 39.765625 -6.390625 L 44.15625 -6.15625 L 44.15625 0 L 25.84375 0 L 25.84375 -5.84375 L 28.390625 -6.078125 C 29.148438 -6.179688 29.707031 -6.398438 30.0625 -6.734375 C 30.425781 -7.066406 30.609375 -7.691406 30.609375 -8.609375 L 30.609375 -24.46875 C 30.609375 -27.28125 30.171875 -29.363281 29.296875 -30.71875 C 28.429688 -32.082031 26.78125 -32.765625 24.34375 -32.765625 C 21.90625 -32.765625 19.96875 -31.992188 18.53125 -30.453125 C 17.101562 -28.921875 16.390625 -27.101562 16.390625 -25 L 16.390625 -6.390625 L 20.765625 -6.15625 L 20.765625 0 L 2.46875 0 L 2.46875 -5.84375 L 5 -6.078125 C 5.769531 -6.179688 6.332031 -6.398438 6.6875 -6.734375 C 7.050781 -7.066406 7.234375 -7.691406 7.234375 -8.609375 L 7.234375 -29.921875 C 7.234375 -31.460938 6.59375 -32.257812 5.3125 -32.3125 Z M 2.078125 -32.53125 "/></g></g></g><g fill="#1a180d" fill-opacity="1"><g transform="translate(423.62982, 429.626373)"><g><path d="M 20.234375 -5.609375 C 25.816406 -5.609375 28.609375 -10.125 28.609375 -19.15625 C 28.609375 -23.71875 27.976562 -27.175781 26.71875 -29.53125 C 25.46875 -31.894531 23.367188 -33.078125 20.421875 -33.078125 C 17.472656 -33.078125 15.304688 -31.945312 13.921875 -29.6875 C 12.535156 -27.4375 11.84375 -24.363281 11.84375 -20.46875 C 11.84375 -13.226562 13.175781 -8.6875 15.84375 -6.84375 C 17.019531 -6.019531 18.484375 -5.609375 20.234375 -5.609375 Z M 2.53125 -19.390625 C 2.53125 -23.179688 3.09375 -26.472656 4.21875 -29.265625 C 5.351562 -32.066406 6.867188 -34.207031 8.765625 -35.6875 C 12.410156 -38.457031 16.4375 -39.84375 20.84375 -39.84375 C 23.925781 -39.84375 26.53125 -39.34375 28.65625 -38.34375 C 30.78125 -37.34375 32.445312 -36.1875 33.65625 -34.875 C 34.863281 -33.570312 35.890625 -31.675781 36.734375 -29.1875 C 37.578125 -26.707031 38 -23.773438 38 -20.390625 C 38 -13.304688 36.28125 -7.941406 32.84375 -4.296875 C 29.40625 -0.660156 25.003906 1.15625 19.640625 1.15625 C 14.285156 1.15625 10.09375 -0.570312 7.0625 -4.03125 C 4.039062 -7.5 2.53125 -12.617188 2.53125 -19.390625 Z M 2.53125 -19.390625 "/></g></g></g><g fill="#1a180d" fill-opacity="1"><g transform="translate(464.233946, 429.626373)"><g><path d="M 43.3125 -6.078125 L 43.3125 0 L 30.84375 0 L 30.84375 -5 C 28.019531 -1 23.867188 1 18.390625 1 C 10.441406 1 6.46875 -3.4375 6.46875 -12.3125 L 6.46875 -30.078125 C 6.46875 -31.460938 5.820312 -32.179688 4.53125 -32.234375 L 2.078125 -32.390625 L 2.078125 -38.6875 L 15.609375 -38.6875 L 15.609375 -14.3125 C 15.609375 -11.59375 15.992188 -9.539062 16.765625 -8.15625 C 17.535156 -6.769531 19.125 -6.078125 21.53125 -6.078125 C 23.945312 -6.078125 25.882812 -6.816406 27.34375 -8.296875 C 28.800781 -9.785156 29.53125 -11.582031 29.53125 -13.6875 L 29.53125 -29.921875 C 29.53125 -30.742188 29.390625 -31.320312 29.109375 -31.65625 C 28.828125 -31.988281 28.328125 -32.179688 27.609375 -32.234375 L 25.15625 -32.390625 L 25.15625 -38.6875 L 38.6875 -38.6875 L 38.6875 -8.53125 C 38.6875 -7.71875 38.816406 -7.171875 39.078125 -6.890625 C 39.335938 -6.609375 39.847656 -6.414062 40.609375 -6.3125 Z M 43.3125 -6.078125 "/></g></g></g><g fill="#1a180d" fill-opacity="1"><g transform="translate(509.682857, 429.626373)"><g><path d="M 25.921875 -38.6875 L 42.15625 -38.6875 L 42.15625 -32.6875 L 39.765625 -32.53125 C 38.742188 -32.4375 38.050781 -31.820312 37.6875 -30.6875 L 27.765625 0 L 16 0 L 5.234375 -30.609375 C 4.972656 -31.328125 4.703125 -31.816406 4.421875 -32.078125 C 4.140625 -32.335938 3.664062 -32.488281 3 -32.53125 L 0.765625 -32.6875 L 0.765625 -38.6875 L 18.84375 -38.6875 L 18.84375 -32.53125 L 14.15625 -32.3125 L 22.078125 -7 L 22.234375 -7 L 29.921875 -32.3125 L 25.921875 -32.53125 Z M 25.921875 -38.6875 "/></g></g></g><g fill="#1a180d" fill-opacity="1"><g transform="translate(552.59399, 429.626373)"><g><path d="M 21.84375 -39.84375 C 25.6875 -39.84375 28.738281 -38.90625 31 -37.03125 C 33.257812 -35.164062 34.390625 -32.539062 34.390625 -29.15625 C 34.390625 -26.894531 33.898438 -24.90625 32.921875 -23.1875 C 31.953125 -21.46875 30.75 -20.117188 29.3125 -19.140625 C 27.875 -18.171875 26.128906 -17.378906 24.078125 -16.765625 C 20.640625 -15.742188 16.769531 -15.234375 12.46875 -15.234375 C 12.613281 -12.515625 13.457031 -10.320312 15 -8.65625 C 16.539062 -6.988281 18.898438 -6.15625 22.078125 -6.15625 C 25.253906 -6.15625 28.429688 -7.28125 31.609375 -9.53125 L 34.53125 -3.3125 C 33.507812 -2.382812 31.78125 -1.429688 29.34375 -0.453125 C 26.90625 0.515625 24.125 1 21 1 C 14.738281 1 10.144531 -0.726562 7.21875 -4.1875 C 4.300781 -7.65625 2.84375 -12.410156 2.84375 -18.453125 C 2.84375 -24.503906 4.507812 -29.582031 7.84375 -33.6875 C 11.175781 -37.789062 15.84375 -39.84375 21.84375 -39.84375 Z M 18.34375 -22.265625 C 20.21875 -22.597656 21.945312 -23.34375 23.53125 -24.5 C 25.125 -25.65625 25.921875 -27.023438 25.921875 -28.609375 C 25.921875 -31.742188 24.382812 -33.3125 21.3125 -33.3125 C 18.4375 -33.3125 16.226562 -32.171875 14.6875 -29.890625 C 13.15625 -27.609375 12.3125 -24.875 12.15625 -21.6875 C 14.40625 -21.738281 16.46875 -21.929688 18.34375 -22.265625 Z M 18.34375 -22.265625 "/></g></g></g><g fill="#1a180d" fill-opacity="1"><g transform="translate(589.814434, 429.626373)"><g><path d="M 16.3125 -54.84375 L 16.3125 -6.390625 L 20.6875 -6.15625 L 20.6875 0 L 2.390625 0 L 2.390625 -5.84375 L 4.921875 -6.078125 C 6.410156 -6.234375 7.15625 -7.050781 7.15625 -8.53125 L 7.15625 -46.453125 C 7.15625 -47.585938 6.515625 -48.207031 5.234375 -48.3125 L 2.53125 -48.453125 L 2.53125 -54.84375 Z M 16.3125 -54.84375 "/></g></g></g><g fill="#1a180d" fill-opacity="1"><g transform="translate(612.731166, 429.626373)"><g><path d="M 16.3125 -54.84375 L 16.3125 -6.390625 L 20.6875 -6.15625 L 20.6875 0 L 2.390625 0 L 2.390625 -5.84375 L 4.921875 -6.078125 C 6.410156 -6.234375 7.15625 -7.050781 7.15625 -8.53125 L 7.15625 -46.453125 C 7.15625 -47.585938 6.515625 -48.207031 5.234375 -48.3125 L 2.53125 -48.453125 L 2.53125 -54.84375 Z M 16.3125 -54.84375 "/></g></g></g><g fill="#1a180d" fill-opacity="1"><g transform="translate(635.647898, 429.626373)"><g><path d="M 21.84375 -39.84375 C 25.6875 -39.84375 28.738281 -38.90625 31 -37.03125 C 33.257812 -35.164062 34.390625 -32.539062 34.390625 -29.15625 C 34.390625 -26.894531 33.898438 -24.90625 32.921875 -23.1875 C 31.953125 -21.46875 30.75 -20.117188 29.3125 -19.140625 C 27.875 -18.171875 26.128906 -17.378906 24.078125 -16.765625 C 20.640625 -15.742188 16.769531 -15.234375 12.46875 -15.234375 C 12.613281 -12.515625 13.457031 -10.320312 15 -8.65625 C 16.539062 -6.988281 18.898438 -6.15625 22.078125 -6.15625 C 25.253906 -6.15625 28.429688 -7.28125 31.609375 -9.53125 L 34.53125 -3.3125 C 33.507812 -2.382812 31.78125 -1.429688 29.34375 -0.453125 C 26.90625 0.515625 24.125 1 21 1 C 14.738281 1 10.144531 -0.726562 7.21875 -4.1875 C 4.300781 -7.65625 2.84375 -12.410156 2.84375 -18.453125 C 2.84375 -24.503906 4.507812 -29.582031 7.84375 -33.6875 C 11.175781 -37.789062 15.84375 -39.84375 21.84375 -39.84375 Z M 18.34375 -22.265625 C 20.21875 -22.597656 21.945312 -23.34375 23.53125 -24.5 C 25.125 -25.65625 25.921875 -27.023438 25.921875 -28.609375 C 25.921875 -31.742188 24.382812 -33.3125 21.3125 -33.3125 C 18.4375 -33.3125 16.226562 -32.171875 14.6875 -29.890625 C 13.15625 -27.609375 12.3125 -24.875 12.15625 -21.6875 C 14.40625 -21.738281 16.46875 -21.929688 18.34375 -22.265625 Z M 18.34375 -22.265625 "/></g></g></g><g fill="#1a180d" fill-opacity="1"><g transform="translate(672.868342, 429.626373)"><g/></g></g><g fill="#1a180d" fill-opacity="1"><g transform="translate(688.248665, 429.626373)"><g><path d="M 25.921875 -38.6875 L 42.15625 -38.6875 L 42.15625 -32.6875 L 39.765625 -32.53125 C 38.742188 -32.4375 38.050781 -31.820312 37.6875 -30.6875 L 27.765625 0 L 16 0 L 5.234375 -30.609375 C 4.972656 -31.328125 4.703125 -31.816406 4.421875 -32.078125 C 4.140625 -32.335938 3.664062 -32.488281 3 -32.53125 L 0.765625 -32.6875 L 0.765625 -38.6875 L 18.84375 -38.6875 L 18.84375 -32.53125 L 14.15625 -32.3125 L 22.078125 -7 L 22.234375 -7 L 29.921875 -32.3125 L 25.921875 -32.53125 Z M 25.921875 -38.6875 "/></g></g></g><g fill="#1a180d" fill-opacity="1"><g transform="translate(731.159798, 429.626373)"><g><path d="M 16.46875 -38.6875 L 16.46875 -6.390625 L 20.84375 -6.15625 L 20.84375 0 L 2.53125 0 L 2.53125 -5.84375 L 5.078125 -6.078125 C 6.566406 -6.234375 7.3125 -7.050781 7.3125 -8.53125 L 7.3125 -29.921875 C 7.3125 -30.796875 7.171875 -31.382812 6.890625 -31.6875 C 6.609375 -32 6.109375 -32.15625 5.390625 -32.15625 L 2.6875 -32.3125 L 2.6875 -38.6875 Z M 6.765625 -45.34375 C 5.691406 -46.394531 5.15625 -47.738281 5.15625 -49.375 C 5.15625 -51.019531 5.691406 -52.394531 6.765625 -53.5 C 7.847656 -54.601562 9.257812 -55.15625 11 -55.15625 C 12.738281 -55.15625 14.160156 -54.601562 15.265625 -53.5 C 16.367188 -52.394531 16.921875 -51.019531 16.921875 -49.375 C 16.921875 -47.738281 16.367188 -46.394531 15.265625 -45.34375 C 14.160156 -44.289062 12.738281 -43.765625 11 -43.765625 C 9.257812 -43.765625 7.847656 -44.289062 6.765625 -45.34375 Z M 6.765625 -45.34375 "/></g></g></g><g fill="#1a180d" fill-opacity="1"><g transform="translate(753.922684, 429.626373)"><g><path d="M 21.84375 -39.84375 C 25.6875 -39.84375 28.738281 -38.90625 31 -37.03125 C 33.257812 -35.164062 34.390625 -32.539062 34.390625 -29.15625 C 34.390625 -26.894531 33.898438 -24.90625 32.921875 -23.1875 C 31.953125 -21.46875 30.75 -20.117188 29.3125 -19.140625 C 27.875 -18.171875 26.128906 -17.378906 24.078125 -16.765625 C 20.640625 -15.742188 16.769531 -15.234375 12.46875 -15.234375 C 12.613281 -12.515625 13.457031 -10.320312 15 -8.65625 C 16.539062 -6.988281 18.898438 -6.15625 22.078125 -6.15625 C 25.253906 -6.15625 28.429688 -7.28125 31.609375 -9.53125 L 34.53125 -3.3125 C 33.507812 -2.382812 31.78125 -1.429688 29.34375 -0.453125 C 26.90625 0.515625 24.125 1 21 1 C 14.738281 1 10.144531 -0.726562 7.21875 -4.1875 C 4.300781 -7.65625 2.84375 -12.410156 2.84375 -18.453125 C 2.84375 -24.503906 4.507812 -29.582031 7.84375 -33.6875 C 11.175781 -37.789062 15.84375 -39.84375 21.84375 -39.84375 Z M 18.34375 -22.265625 C 20.21875 -22.597656 21.945312 -23.34375 23.53125 -24.5 C 25.125 -25.65625 25.921875 -27.023438 25.921875 -28.609375 C 25.921875 -31.742188 24.382812 -33.3125 21.3125 -33.3125 C 18.4375 -33.3125 16.226562 -32.171875 14.6875 -29.890625 C 13.15625 -27.609375 12.3125 -24.875 12.15625 -21.6875 C 14.40625 -21.738281 16.46875 -21.929688 18.34375 -22.265625 Z M 18.34375 -22.265625 "/></g></g></g><g fill="#1a180d" fill-opacity="1"><g transform="translate(791.143127, 429.626373)"><g/></g></g><g fill="#1a180d" fill-opacity="1"><g transform="translate(806.52345, 429.626373)"><g><path d="M 11.84375 -19.765625 C 11.84375 -15.410156 12.660156 -12.023438 14.296875 -9.609375 C 15.941406 -7.203125 18.316406 -6 21.421875 -6 C 24.523438 -6 27.585938 -7.101562 30.609375 -9.3125 L 33.921875 -3.390625 C 30.285156 -0.410156 25.722656 1.078125 20.234375 1.078125 C 14.742188 1.078125 10.421875 -0.648438 7.265625 -4.109375 C 4.109375 -7.578125 2.53125 -12.691406 2.53125 -19.453125 C 2.53125 -26.222656 4.335938 -31.3125 7.953125 -34.71875 C 11.578125 -38.132812 15.65625 -39.84375 20.1875 -39.84375 C 24.726562 -39.84375 28.945312 -38.789062 32.84375 -36.6875 L 32.84375 -26.6875 L 25.765625 -26.15625 L 25.765625 -29.84375 C 25.765625 -31.226562 25.265625 -32.085938 24.265625 -32.421875 C 23.265625 -32.753906 22.226562 -32.921875 21.15625 -32.921875 C 14.945312 -32.921875 11.84375 -28.535156 11.84375 -19.765625 Z M 11.84375 -19.765625 "/></g></g></g><g fill="#1a180d" fill-opacity="1"><g transform="translate(842.744142, 429.626373)"><g><path d="M 20.234375 -5.609375 C 25.816406 -5.609375 28.609375 -10.125 28.609375 -19.15625 C 28.609375 -23.71875 27.976562 -27.175781 26.71875 -29.53125 C 25.46875 -31.894531 23.367188 -33.078125 20.421875 -33.078125 C 17.472656 -33.078125 15.304688 -31.945312 13.921875 -29.6875 C 12.535156 -27.4375 11.84375 -24.363281 11.84375 -20.46875 C 11.84375 -13.226562 13.175781 -8.6875 15.84375 -6.84375 C 17.019531 -6.019531 18.484375 -5.609375 20.234375 -5.609375 Z M 2.53125 -19.390625 C 2.53125 -23.179688 3.09375 -26.472656 4.21875 -29.265625 C 5.351562 -32.066406 6.867188 -34.207031 8.765625 -35.6875 C 12.410156 -38.457031 16.4375 -39.84375 20.84375 -39.84375 C 23.925781 -39.84375 26.53125 -39.34375 28.65625 -38.34375 C 30.78125 -37.34375 32.445312 -36.1875 33.65625 -34.875 C 34.863281 -33.570312 35.890625 -31.675781 36.734375 -29.1875 C 37.578125 -26.707031 38 -23.773438 38 -20.390625 C 38 -13.304688 36.28125 -7.941406 32.84375 -4.296875 C 29.40625 -0.660156 25.003906 1.15625 19.640625 1.15625 C 14.285156 1.15625 10.09375 -0.570312 7.0625 -4.03125 C 4.039062 -7.5 2.53125 -12.617188 2.53125 -19.390625 Z M 2.53125 -19.390625 "/></g></g></g><g fill="#1a180d" fill-opacity="1"><g transform="translate(883.348268, 429.626373)"><g><path d="M 2.078125 -32.46875 L 2.078125 -38.6875 L 15.078125 -38.6875 L 15.078125 -33.6875 C 17.953125 -37.789062 21.890625 -39.84375 26.890625 -39.84375 C 31.890625 -39.84375 35.257812 -37.789062 37 -33.6875 C 39.875 -37.789062 43.769531 -39.84375 48.6875 -39.84375 C 52.382812 -39.84375 55.234375 -38.726562 57.234375 -36.5 C 59.234375 -34.269531 60.234375 -30.925781 60.234375 -26.46875 L 60.234375 -6.390625 L 64.609375 -6.15625 L 64.609375 0 L 46.3125 0 L 46.3125 -5.84375 L 48.84375 -6.078125 C 49.613281 -6.179688 50.164062 -6.398438 50.5 -6.734375 C 50.832031 -7.066406 51.023438 -7.664062 51.078125 -8.53125 L 51.078125 -24.46875 C 51.078125 -27.28125 50.753906 -29.363281 50.109375 -30.71875 C 49.472656 -32.082031 47.972656 -32.765625 45.609375 -32.765625 C 43.253906 -32.765625 41.445312 -32.046875 40.1875 -30.609375 C 38.9375 -29.179688 38.3125 -27.257812 38.3125 -24.84375 L 38.3125 -6.390625 L 42.53125 -6.15625 L 42.53125 0 L 24.390625 0 L 24.390625 -5.84375 L 26.921875 -6.078125 C 27.691406 -6.179688 28.253906 -6.398438 28.609375 -6.734375 C 28.972656 -7.066406 29.15625 -7.691406 29.15625 -8.609375 L 29.15625 -24.46875 C 29.15625 -27.28125 28.832031 -29.363281 28.1875 -30.71875 C 27.550781 -32.082031 26.039062 -32.765625 23.65625 -32.765625 C 21.269531 -32.765625 19.460938 -32.019531 18.234375 -30.53125 C 17.003906 -29.050781 16.390625 -27.207031 16.390625 -25 L 16.390625 -6.390625 L 20.53125 -6.15625 L 20.53125 0 L 2.390625 0 L 2.390625 -5.84375 L 4.921875 -6.078125 C 5.691406 -6.179688 6.253906 -6.398438 6.609375 -6.734375 C 6.972656 -7.066406 7.15625 -7.691406 7.15625 -8.609375 L 7.234375 -8.609375 L 7.234375 -29.84375 C 7.234375 -30.71875 7.09375 -31.320312 6.8125 -31.65625 C 6.53125 -31.988281 6.03125 -32.179688 5.3125 -32.234375 Z M 2.078125 -32.46875 "/></g></g></g><g fill="#1a180d" fill-opacity="1"><g transform="translate(949.945115, 429.626373)"><g><path d="M 2.078125 -32.46875 L 2.078125 -38.6875 L 15.078125 -38.6875 L 15.078125 -33.6875 C 17.953125 -37.789062 21.890625 -39.84375 26.890625 -39.84375 C 31.890625 -39.84375 35.257812 -37.789062 37 -33.6875 C 39.875 -37.789062 43.769531 -39.84375 48.6875 -39.84375 C 52.382812 -39.84375 55.234375 -38.726562 57.234375 -36.5 C 59.234375 -34.269531 60.234375 -30.925781 60.234375 -26.46875 L 60.234375 -6.390625 L 64.609375 -6.15625 L 64.609375 0 L 46.3125 0 L 46.3125 -5.84375 L 48.84375 -6.078125 C 49.613281 -6.179688 50.164062 -6.398438 50.5 -6.734375 C 50.832031 -7.066406 51.023438 -7.664062 51.078125 -8.53125 L 51.078125 -24.46875 C 51.078125 -27.28125 50.753906 -29.363281 50.109375 -30.71875 C 49.472656 -32.082031 47.972656 -32.765625 45.609375 -32.765625 C 43.253906 -32.765625 41.445312 -32.046875 40.1875 -30.609375 C 38.9375 -29.179688 38.3125 -27.257812 38.3125 -24.84375 L 38.3125 -6.390625 L 42.53125 -6.15625 L 42.53125 0 L 24.390625 0 L 24.390625 -5.84375 L 26.921875 -6.078125 C 27.691406 -6.179688 28.253906 -6.398438 28.609375 -6.734375 C 28.972656 -7.066406 29.15625 -7.691406 29.15625 -8.609375 L 29.15625 -24.46875 C 29.15625 -27.28125 28.832031 -29.363281 28.1875 -30.71875 C 27.550781 -32.082031 26.039062 -32.765625 23.65625 -32.765625 C 21.269531 -32.765625 19.460938 -32.019531 18.234375 -30.53125 C 17.003906 -29.050781 16.390625 -27.207031 16.390625 -25 L 16.390625 -6.390625 L 20.53125 -6.15625 L 20.53125 0 L 2.390625 0 L 2.390625 -5.84375 L 4.921875 -6.078125 C 5.691406 -6.179688 6.253906 -6.398438 6.609375 -6.734375 C 6.972656 -7.066406 7.15625 -7.691406 7.15625 -8.609375 L 7.234375 -8.609375 L 7.234375 -29.84375 C 7.234375 -30.71875 7.09375 -31.320312 6.8125 -31.65625 C 6.53125 -31.988281 6.03125 -32.179688 5.3125 -32.234375 Z M 2.078125 -32.46875 "/></g></g></g><g fill="#1a180d" fill-opacity="1"><g transform="translate(1016.541962, 429.626373)"><g><path d="M 21.84375 -39.84375 C 25.6875 -39.84375 28.738281 -38.90625 31 -37.03125 C 33.257812 -35.164062 34.390625 -32.539062 34.390625 -29.15625 C 34.390625 -26.894531 33.898438 -24.90625 32.921875 -23.1875 C 31.953125 -21.46875 30.75 -20.117188 29.3125 -19.140625 C 27.875 -18.171875 26.128906 -17.378906 24.078125 -16.765625 C 20.640625 -15.742188 16.769531 -15.234375 12.46875 -15.234375 C 12.613281 -12.515625 13.457031 -10.320312 15 -8.65625 C 16.539062 -6.988281 18.898438 -6.15625 22.078125 -6.15625 C 25.253906 -6.15625 28.429688 -7.28125 31.609375 -9.53125 L 34.53125 -3.3125 C 33.507812 -2.382812 31.78125 -1.429688 29.34375 -0.453125 C 26.90625 0.515625 24.125 1 21 1 C 14.738281 1 10.144531 -0.726562 7.21875 -4.1875 C 4.300781 -7.65625 2.84375 -12.410156 2.84375 -18.453125 C 2.84375 -24.503906 4.507812 -29.582031 7.84375 -33.6875 C 11.175781 -37.789062 15.84375 -39.84375 21.84375 -39.84375 Z M 18.34375 -22.265625 C 20.21875 -22.597656 21.945312 -23.34375 23.53125 -24.5 C 25.125 -25.65625 25.921875 -27.023438 25.921875 -28.609375 C 25.921875 -31.742188 24.382812 -33.3125 21.3125 -33.3125 C 18.4375 -33.3125 16.226562 -32.171875 14.6875 -29.890625 C 13.15625 -27.609375 12.3125 -24.875 12.15625 -21.6875 C 14.40625 -21.738281 16.46875 -21.929688 18.34375 -22.265625 Z M 18.34375 -22.265625 "/></g></g></g><g fill="#1a180d" fill-opacity="1"><g transform="translate(1053.762406, 429.626373)"><g><path d="M 2.078125 -32.53125 L 2.078125 -38.6875 L 15.078125 -38.6875 L 15.078125 -33.6875 C 16.410156 -35.582031 18.175781 -37.082031 20.375 -38.1875 C 22.582031 -39.289062 24.96875 -39.84375 27.53125 -39.84375 C 31.4375 -39.84375 34.453125 -38.726562 36.578125 -36.5 C 38.703125 -34.269531 39.765625 -30.925781 39.765625 -26.46875 L 39.765625 -6.390625 L 44.15625 -6.15625 L 44.15625 0 L 25.84375 0 L 25.84375 -5.84375 L 28.390625 -6.078125 C 29.148438 -6.179688 29.707031 -6.398438 30.0625 -6.734375 C 30.425781 -7.066406 30.609375 -7.691406 30.609375 -8.609375 L 30.609375 -24.46875 C 30.609375 -27.28125 30.171875 -29.363281 29.296875 -30.71875 C 28.429688 -32.082031 26.78125 -32.765625 24.34375 -32.765625 C 21.90625 -32.765625 19.96875 -31.992188 18.53125 -30.453125 C 17.101562 -28.921875 16.390625 -27.101562 16.390625 -25 L 16.390625 -6.390625 L 20.765625 -6.15625 L 20.765625 0 L 2.46875 0 L 2.46875 -5.84375 L 5 -6.078125 C 5.769531 -6.179688 6.332031 -6.398438 6.6875 -6.734375 C 7.050781 -7.066406 7.234375 -7.691406 7.234375 -8.609375 L 7.234375 -29.921875 C 7.234375 -31.460938 6.59375 -32.257812 5.3125 -32.3125 Z M 2.078125 -32.53125 "/></g></g></g><g fill="#1a180d" fill-opacity="1"><g transform="translate(1099.903438, 429.626373)"><g><path d="M 11.84375 -19.765625 C 11.84375 -15.410156 12.660156 -12.023438 14.296875 -9.609375 C 15.941406 -7.203125 18.316406 -6 21.421875 -6 C 24.523438 -6 27.585938 -7.101562 30.609375 -9.3125 L 33.921875 -3.390625 C 30.285156 -0.410156 25.722656 1.078125 20.234375 1.078125 C 14.742188 1.078125 10.421875 -0.648438 7.265625 -4.109375 C 4.109375 -7.578125 2.53125 -12.691406 2.53125 -19.453125 C 2.53125 -26.222656 4.335938 -31.3125 7.953125 -34.71875 C 11.578125 -38.132812 15.65625 -39.84375 20.1875 -39.84375 C 24.726562 -39.84375 28.945312 -38.789062 32.84375 -36.6875 L 32.84375 -26.6875 L 25.765625 -26.15625 L 25.765625 -29.84375 C 25.765625 -31.226562 25.265625 -32.085938 24.265625 -32.421875 C 23.265625 -32.753906 22.226562 -32.921875 21.15625 -32.921875 C 14.945312 -32.921875 11.84375 -28.535156 11.84375 -19.765625 Z M 11.84375 -19.765625 "/></g></g></g><g fill="#1a180d" fill-opacity="1"><g transform="translate(1136.124129, 429.626373)"><g><path d="M 21.84375 -39.84375 C 25.6875 -39.84375 28.738281 -38.90625 31 -37.03125 C 33.257812 -35.164062 34.390625 -32.539062 34.390625 -29.15625 C 34.390625 -26.894531 33.898438 -24.90625 32.921875 -23.1875 C 31.953125 -21.46875 30.75 -20.117188 29.3125 -19.140625 C 27.875 -18.171875 26.128906 -17.378906 24.078125 -16.765625 C 20.640625 -15.742188 16.769531 -15.234375 12.46875 -15.234375 C 12.613281 -12.515625 13.457031 -10.320312 15 -8.65625 C 16.539062 -6.988281 18.898438 -6.15625 22.078125 -6.15625 C 25.253906 -6.15625 28.429688 -7.28125 31.609375 -9.53125 L 34.53125 -3.3125 C 33.507812 -2.382812 31.78125 -1.429688 29.34375 -0.453125 C 26.90625 0.515625 24.125 1 21 1 C 14.738281 1 10.144531 -0.726562 7.21875 -4.1875 C 4.300781 -7.65625 2.84375 -12.410156 2.84375 -18.453125 C 2.84375 -24.503906 4.507812 -29.582031 7.84375 -33.6875 C 11.175781 -37.789062 15.84375 -39.84375 21.84375 -39.84375 Z M 18.34375 -22.265625 C 20.21875 -22.597656 21.945312 -23.34375 23.53125 -24.5 C 25.125 -25.65625 25.921875 -27.023438 25.921875 -28.609375 C 25.921875 -31.742188 24.382812 -33.3125 21.3125 -33.3125 C 18.4375 -33.3125 16.226562 -32.171875 14.6875 -29.890625 C 13.15625 -27.609375 12.3125 -24.875 12.15625 -21.6875 C 14.40625 -21.738281 16.46875 -21.929688 18.34375 -22.265625 Z M 18.34375 -22.265625 "/></g></g></g><g fill="#1a180d" fill-opacity="1"><g transform="translate(1173.344573, 429.626373)"><g/></g></g><g fill="#1a180d" fill-opacity="1"><g transform="translate(1188.724896, 429.626373)"><g><path d="M 16.46875 -38.6875 L 16.46875 -6.390625 L 20.84375 -6.15625 L 20.84375 0 L 2.53125 0 L 2.53125 -5.84375 L 5.078125 -6.078125 C 6.566406 -6.234375 7.3125 -7.050781 7.3125 -8.53125 L 7.3125 -29.921875 C 7.3125 -30.796875 7.171875 -31.382812 6.890625 -31.6875 C 6.609375 -32 6.109375 -32.15625 5.390625 -32.15625 L 2.6875 -32.3125 L 2.6875 -38.6875 Z M 6.765625 -45.34375 C 5.691406 -46.394531 5.15625 -47.738281 5.15625 -49.375 C 5.15625 -51.019531 5.691406 -52.394531 6.765625 -53.5 C 7.847656 -54.601562 9.257812 -55.15625 11 -55.15625 C 12.738281 -55.15625 14.160156 -54.601562 15.265625 -53.5 C 16.367188 -52.394531 16.921875 -51.019531 16.921875 -49.375 C 16.921875 -47.738281 16.367188 -46.394531 15.265625 -45.34375 C 14.160156 -44.289062 12.738281 -43.765625 11 -43.765625 C 9.257812 -43.765625 7.847656 -44.289062 6.765625 -45.34375 Z M 6.765625 -45.34375 "/></g></g></g><g fill="#1a180d" fill-opacity="1"><g transform="translate(1211.487782, 429.626373)"><g><path d="M 11.84375 -19.765625 C 11.84375 -15.410156 12.660156 -12.023438 14.296875 -9.609375 C 15.941406 -7.203125 18.316406 -6 21.421875 -6 C 24.523438 -6 27.585938 -7.101562 30.609375 -9.3125 L 33.921875 -3.390625 C 30.285156 -0.410156 25.722656 1.078125 20.234375 1.078125 C 14.742188 1.078125 10.421875 -0.648438 7.265625 -4.109375 C 4.109375 -7.578125 2.53125 -12.691406 2.53125 -19.453125 C 2.53125 -26.222656 4.335938 -31.3125 7.953125 -34.71875 C 11.578125 -38.132812 15.65625 -39.84375 20.1875 -39.84375 C 24.726562 -39.84375 28.945312 -38.789062 32.84375 -36.6875 L 32.84375 -26.6875 L 25.765625 -26.15625 L 25.765625 -29.84375 C 25.765625 -31.226562 25.265625 -32.085938 24.265625 -32.421875 C 23.265625 -32.753906 22.226562 -32.921875 21.15625 -32.921875 C 14.945312 -32.921875 11.84375 -28.535156 11.84375 -19.765625 Z M 11.84375 -19.765625 "/></g></g></g><g fill="#1a180d" fill-opacity="1"><g transform="translate(1247.708411, 429.626373)"><g><path d="M 16.46875 -38.6875 L 16.46875 -6.390625 L 20.84375 -6.15625 L 20.84375 0 L 2.53125 0 L 2.53125 -5.84375 L 5.078125 -6.078125 C 6.566406 -6.234375 7.3125 -7.050781 7.3125 -8.53125 L 7.3125 -29.921875 C 7.3125 -30.796875 7.171875 -31.382812 6.890625 -31.6875 C 6.609375 -32 6.109375 -32.15625 5.390625 -32.15625 L 2.6875 -32.3125 L 2.6875 -38.6875 Z M 6.765625 -45.34375 C 5.691406 -46.394531 5.15625 -47.738281 5.15625 -49.375 C 5.15625 -51.019531 5.691406 -52.394531 6.765625 -53.5 C 7.847656 -54.601562 9.257812 -55.15625 11 -55.15625 C 12.738281 -55.15625 14.160156 -54.601562 15.265625 -53.5 C 16.367188 -52.394531 16.921875 -51.019531 16.921875 -49.375 C 16.921875 -47.738281 16.367188 -46.394531 15.265625 -45.34375 C 14.160156 -44.289062 12.738281 -43.765625 11 -43.765625 C 9.257812 -43.765625 7.847656 -44.289062 6.765625 -45.34375 Z M 6.765625 -45.34375 "/></g></g></g><g fill="#1a180d" fill-opacity="1"><g transform="translate(3.844458, 361.206105)"><g><path d="M 58.21875 3.921875 C 39.789062 3.921875 26.253906 -0.722656 17.609375 -10.015625 C 8.960938 -19.316406 4.640625 -34.734375 4.640625 -56.265625 C 4.640625 -73.390625 7.535156 -91.816406 13.328125 -111.546875 C 19.117188 -131.285156 28.414062 -148.207031 41.21875 -162.3125 C 54.019531 -176.425781 70.289062 -183.484375 90.03125 -183.484375 C 102.257812 -183.484375 112.125 -180.789062 119.625 -175.40625 C 127.125 -170.019531 130.875 -161.785156 130.875 -150.703125 C 130.875 -143.679688 129.488281 -138.171875 126.71875 -134.171875 C 123.945312 -130.179688 119.628906 -128.1875 113.765625 -128.1875 C 107.890625 -128.1875 103.238281 -130.304688 99.8125 -134.546875 C 102.75 -136.015625 105.359375 -138.953125 107.640625 -143.359375 C 109.921875 -147.765625 111.0625 -152.332031 111.0625 -157.0625 C 111.0625 -161.46875 109.878906 -165.054688 107.515625 -167.828125 C 105.148438 -170.597656 101.359375 -171.984375 96.140625 -171.984375 C 87.492188 -171.984375 79.253906 -166.070312 71.421875 -154.25 C 63.597656 -142.425781 57.28125 -127.539062 52.46875 -109.59375 C 47.664062 -91.65625 45.265625 -74.367188 45.265625 -57.734375 C 45.265625 -45.335938 47.382812 -35.878906 51.625 -29.359375 C 55.863281 -22.835938 63.523438 -19.578125 74.609375 -19.578125 C 84.234375 -19.578125 93.125 -21.695312 101.28125 -25.9375 C 109.4375 -30.175781 116.445312 -36.207031 122.3125 -44.03125 L 127.953125 -41.59375 C 123.867188 -31.3125 117.832031 -22.742188 109.84375 -15.890625 C 101.851562 -9.046875 93.289062 -4.03125 84.15625 -0.84375 C 75.019531 2.332031 66.375 3.921875 58.21875 3.921875 Z M 58.21875 3.921875 "/></g></g></g><g fill="#1a180d" fill-opacity="1"><g transform="translate(125.430093, 361.206105)"><g><path d="M 88.3125 1.46875 C 78.363281 1.46875 71.066406 -1.179688 66.421875 -6.484375 C 61.773438 -11.785156 59.453125 -18.347656 59.453125 -26.171875 C 59.453125 -29.597656 59.859375 -33.472656 60.671875 -37.796875 C 61.484375 -42.117188 62.335938 -46.316406 63.234375 -50.390625 C 64.128906 -54.472656 64.742188 -57.082031 65.078125 -58.21875 C 66.378906 -63.925781 67.597656 -69.550781 68.734375 -75.09375 C 69.878906 -80.644531 70.453125 -85.132812 70.453125 -88.5625 C 70.453125 -96.875 67.519531 -101.03125 61.65625 -101.03125 C 57.40625 -101.03125 53.648438 -98.953125 50.390625 -94.796875 C 47.128906 -90.640625 44.519531 -85.21875 42.5625 -78.53125 L 25.9375 0 L -9.296875 0 L 26.171875 -166.359375 L 62.390625 -171.25 L 49.171875 -109.59375 C 57.328125 -118.726562 66.867188 -123.296875 77.796875 -123.296875 C 86.109375 -123.296875 92.710938 -121.007812 97.609375 -116.4375 C 102.503906 -111.875 104.953125 -104.945312 104.953125 -95.65625 C 104.953125 -90.925781 104.378906 -85.664062 103.234375 -79.875 C 102.097656 -74.082031 100.46875 -67.03125 98.34375 -58.71875 C 97.039062 -53.65625 95.859375 -48.71875 94.796875 -43.90625 C 93.734375 -39.101562 93.203125 -35.3125 93.203125 -32.53125 C 93.203125 -29.269531 93.9375 -26.742188 95.40625 -24.953125 C 96.875 -23.160156 99.40625 -22.265625 103 -22.265625 C 107.882812 -22.265625 111.796875 -24.015625 114.734375 -27.515625 C 117.671875 -31.023438 120.609375 -36.453125 123.546875 -43.796875 L 133.8125 -43.796875 C 127.78125 -25.847656 120.804688 -13.816406 112.890625 -7.703125 C 104.984375 -1.585938 96.789062 1.46875 88.3125 1.46875 Z M 88.3125 1.46875 "/></g></g></g><g fill="#1a180d" fill-opacity="1"><g transform="translate(248.97282, 361.206105)"><g><path d="M 16.640625 -122.3125 L 51.859375 -122.3125 L 48.6875 -107.15625 C 54.226562 -112.039062 59.238281 -115.785156 63.71875 -118.390625 C 68.207031 -121.003906 73.0625 -122.3125 78.28125 -122.3125 C 83.5 -122.3125 87.617188 -120.519531 90.640625 -116.9375 C 93.660156 -113.351562 95.171875 -109.03125 95.171875 -103.96875 C 95.171875 -99.238281 93.617188 -95.078125 90.515625 -91.484375 C 87.421875 -87.898438 83.097656 -86.109375 77.546875 -86.109375 C 73.960938 -86.109375 71.554688 -86.960938 70.328125 -88.671875 C 69.109375 -90.390625 68.171875 -92.878906 67.515625 -96.140625 C 67.023438 -98.265625 66.535156 -99.816406 66.046875 -100.796875 C 65.554688 -101.773438 64.660156 -102.265625 63.359375 -102.265625 C 59.929688 -102.265625 57.035156 -101.566406 54.671875 -100.171875 C 52.304688 -98.785156 49.25 -96.382812 45.5 -92.96875 L 25.9375 0 L -9.296875 0 Z M 16.640625 -122.3125 "/></g></g></g><g fill="#1a180d" fill-opacity="1"><g transform="translate(340.957123, 361.206105)"><g><path d="M 40.859375 -135.53125 C 35.472656 -135.53125 30.90625 -137.40625 27.15625 -141.15625 C 23.40625 -144.90625 21.53125 -149.472656 21.53125 -154.859375 C 21.53125 -160.242188 23.40625 -164.847656 27.15625 -168.671875 C 30.90625 -172.503906 35.472656 -174.421875 40.859375 -174.421875 C 46.234375 -174.421875 50.835938 -172.503906 54.671875 -168.671875 C 58.503906 -164.847656 60.421875 -160.242188 60.421875 -154.859375 C 60.421875 -149.472656 58.503906 -144.90625 54.671875 -141.15625 C 50.835938 -137.40625 46.234375 -135.53125 40.859375 -135.53125 Z M 24.21875 1.46875 C 16.394531 1.46875 10.078125 -0.972656 5.265625 -5.859375 C 0.453125 -10.753906 -1.953125 -18.097656 -1.953125 -27.890625 C -1.953125 -31.960938 -1.300781 -37.265625 0 -43.796875 L 16.640625 -122.3125 L 51.859375 -122.3125 L 34.25 -39.140625 C 33.59375 -36.691406 33.265625 -34.082031 33.265625 -31.3125 C 33.265625 -28.050781 34.039062 -25.726562 35.59375 -24.34375 C 37.144531 -22.957031 39.710938 -22.265625 43.296875 -22.265625 C 48.023438 -22.265625 52.425781 -24.257812 56.5 -28.25 C 60.582031 -32.25 63.519531 -37.429688 65.3125 -43.796875 L 75.59375 -43.796875 C 69.5625 -26.179688 61.8125 -14.234375 52.34375 -7.953125 C 42.882812 -1.671875 33.507812 1.46875 24.21875 1.46875 Z M 24.21875 1.46875 "/></g></g></g><g fill="#1a180d" fill-opacity="1"><g transform="translate(406.275743, 361.206105)"><g><path d="M 27.890625 1.46875 C 20.054688 1.46875 13.445312 -0.0351562 8.0625 -3.046875 C 2.6875 -6.066406 -1.300781 -9.984375 -3.90625 -14.796875 C -6.519531 -19.609375 -7.828125 -24.625 -7.828125 -29.84375 C -7.828125 -35.226562 -6.5625 -39.914062 -4.03125 -43.90625 C -1.507812 -47.90625 1.546875 -50.800781 5.140625 -52.59375 C 11.492188 -64.007812 17.035156 -75.546875 21.765625 -87.203125 C 26.503906 -98.867188 30.992188 -111.472656 35.234375 -125.015625 L 71.4375 -129.90625 C 72.25 -109.03125 73.632812 -86.441406 75.59375 -62.140625 C 76.40625 -52.347656 76.8125 -45.253906 76.8125 -40.859375 C 76.8125 -37.109375 76.488281 -34.007812 75.84375 -31.5625 C 83.507812 -35.957031 89.378906 -40.035156 93.453125 -43.796875 L 103.734375 -43.796875 C 93.296875 -31.722656 80.816406 -21.523438 66.296875 -13.203125 C 61.566406 -8.148438 55.734375 -4.441406 48.796875 -2.078125 C 41.867188 0.285156 34.898438 1.46875 27.890625 1.46875 Z M 20.0625 -17.859375 C 26.09375 -17.859375 31.144531 -19.648438 35.21875 -23.234375 C 39.300781 -26.828125 41.34375 -32.617188 41.34375 -40.609375 C 41.34375 -45.503906 40.851562 -52.351562 39.875 -61.15625 C 38.25 -79.75 37.191406 -92.226562 36.703125 -98.59375 C 32.785156 -85.707031 26.175781 -70.296875 16.875 -52.359375 C 20.625 -50.398438 22.5 -47.546875 22.5 -43.796875 C 22.5 -40.691406 21.476562 -37.914062 19.4375 -35.46875 C 17.40625 -33.019531 14.84375 -31.796875 11.75 -31.796875 C 8.320312 -31.796875 6.117188 -32.859375 5.140625 -34.984375 C 5.140625 -29.109375 6.320312 -24.785156 8.6875 -22.015625 C 11.050781 -19.242188 14.84375 -17.859375 20.0625 -17.859375 Z M 20.0625 -17.859375 "/></g></g></g><g fill="#1a180d" fill-opacity="1"><g transform="translate(499.727848, 361.206105)"><g/></g></g><g fill="#1a180d" fill-opacity="1"><g transform="translate(552.814489, 361.206105)"><g><path d="M 59.453125 -167.578125 C 48.359375 -163.660156 39.914062 -157.503906 34.125 -149.109375 C 28.332031 -140.710938 25.4375 -130.5625 25.4375 -118.65625 C 25.4375 -113.4375 26.007812 -108.664062 27.15625 -104.34375 C 28.300781 -100.019531 29.929688 -96.472656 32.046875 -93.703125 C 21.609375 -93.703125 13.898438 -95.859375 8.921875 -100.171875 C 3.953125 -104.492188 1.46875 -111.144531 1.46875 -120.125 C 1.46875 -131.539062 4.8125 -142.179688 11.5 -152.046875 C 18.1875 -161.910156 27.238281 -169.773438 38.65625 -175.640625 C 50.070312 -181.515625 62.46875 -184.453125 75.84375 -184.453125 C 79.59375 -184.453125 82.851562 -184.207031 85.625 -183.71875 C 88.394531 -183.226562 91.578125 -182.332031 95.171875 -181.03125 L 124.515625 -50.15625 L 151.921875 -182.984375 L 175.65625 -182.984375 L 135.78125 0 L 102.015625 0 L 73.640625 -121.34375 L 45.75 0 L 22.5 0 Z M 59.453125 -167.578125 "/></g></g></g><g fill="#1a180d" fill-opacity="1"><g transform="translate(716.233367, 361.206105)"><g><path d="M 24.21875 1.46875 C 16.394531 1.46875 10.078125 -0.972656 5.265625 -5.859375 C 0.453125 -10.753906 -1.953125 -18.097656 -1.953125 -27.890625 C -1.953125 -31.960938 -1.300781 -37.265625 0 -43.796875 L 16.640625 -122.3125 L 51.859375 -122.3125 L 34.25 -39.140625 C 33.757812 -36.691406 33.515625 -34.410156 33.515625 -32.296875 C 33.515625 -25.609375 35.960938 -22.265625 40.859375 -22.265625 C 45.421875 -22.265625 49.332031 -24.179688 52.59375 -28.015625 C 55.851562 -31.847656 58.460938 -37.109375 60.421875 -43.796875 L 77.0625 -122.3125 L 112.296875 -122.3125 L 94.671875 -39.140625 C 94.023438 -36.691406 93.703125 -34.082031 93.703125 -31.3125 C 93.703125 -28.050781 94.472656 -25.726562 96.015625 -24.34375 C 97.566406 -22.957031 100.140625 -22.265625 103.734375 -22.265625 C 108.296875 -22.265625 112.25 -24.21875 115.59375 -28.125 C 118.9375 -32.039062 121.585938 -37.265625 123.546875 -43.796875 L 133.8125 -43.796875 C 127.78125 -26.179688 120.316406 -14.234375 111.421875 -7.953125 C 102.535156 -1.671875 93.609375 1.46875 84.640625 1.46875 C 77.628906 1.46875 72.046875 -0.488281 67.890625 -4.40625 C 63.734375 -8.320312 61.242188 -14.109375 60.421875 -21.765625 C 54.878906 -12.796875 49.050781 -6.679688 42.9375 -3.421875 C 36.820312 -0.160156 30.582031 1.46875 24.21875 1.46875 Z M 24.21875 1.46875 "/></g></g></g><g fill="#1a180d" fill-opacity="1"><g transform="translate(839.77614, 361.206105)"><g><path d="M 24.21875 1.46875 C 16.394531 1.46875 10.078125 -0.972656 5.265625 -5.859375 C 0.453125 -10.753906 -1.953125 -18.097656 -1.953125 -27.890625 C -1.953125 -31.960938 -1.300781 -37.265625 0 -43.796875 L 14.671875 -112.53125 L 6.609375 -112.53125 L 8.5625 -122.3125 L 16.640625 -122.3125 L 23.96875 -156.078125 L 60.1875 -160.96875 L 51.859375 -122.3125 L 66.546875 -122.3125 L 64.578125 -112.53125 L 49.90625 -112.53125 L 34.25 -39.140625 C 33.59375 -36.691406 33.265625 -34.082031 33.265625 -31.3125 C 33.265625 -28.050781 34.039062 -25.726562 35.59375 -24.34375 C 37.144531 -22.957031 39.710938 -22.265625 43.296875 -22.265625 C 48.023438 -22.265625 52.425781 -24.257812 56.5 -28.25 C 60.582031 -32.25 63.519531 -37.429688 65.3125 -43.796875 L 75.59375 -43.796875 C 69.5625 -26.179688 61.8125 -14.234375 52.34375 -7.953125 C 42.882812 -1.671875 33.507812 1.46875 24.21875 1.46875 Z M 24.21875 1.46875 "/></g></g></g><g fill="#1a180d" fill-opacity="1"><g transform="translate(905.094783, 361.206105)"><g><path d="M 16.640625 -122.3125 L 51.859375 -122.3125 L 48.6875 -107.15625 C 54.226562 -112.039062 59.238281 -115.785156 63.71875 -118.390625 C 68.207031 -121.003906 73.0625 -122.3125 78.28125 -122.3125 C 83.5 -122.3125 87.617188 -120.519531 90.640625 -116.9375 C 93.660156 -113.351562 95.171875 -109.03125 95.171875 -103.96875 C 95.171875 -99.238281 93.617188 -95.078125 90.515625 -91.484375 C 87.421875 -87.898438 83.097656 -86.109375 77.546875 -86.109375 C 73.960938 -86.109375 71.554688 -86.960938 70.328125 -88.671875 C 69.109375 -90.390625 68.171875 -92.878906 67.515625 -96.140625 C 67.023438 -98.265625 66.535156 -99.816406 66.046875 -100.796875 C 65.554688 -101.773438 64.660156 -102.265625 63.359375 -102.265625 C 59.929688 -102.265625 57.035156 -101.566406 54.671875 -100.171875 C 52.304688 -98.785156 49.25 -96.382812 45.5 -92.96875 L 25.9375 0 L -9.296875 0 Z M 16.640625 -122.3125 "/></g></g></g><g fill="#1a180d" fill-opacity="1"><g transform="translate(997.079132, 361.206105)"><g><path d="M 40.859375 -135.53125 C 35.472656 -135.53125 30.90625 -137.40625 27.15625 -141.15625 C 23.40625 -144.90625 21.53125 -149.472656 21.53125 -154.859375 C 21.53125 -160.242188 23.40625 -164.847656 27.15625 -168.671875 C 30.90625 -172.503906 35.472656 -174.421875 40.859375 -174.421875 C 46.234375 -174.421875 50.835938 -172.503906 54.671875 -168.671875 C 58.503906 -164.847656 60.421875 -160.242188 60.421875 -154.859375 C 60.421875 -149.472656 58.503906 -144.90625 54.671875 -141.15625 C 50.835938 -137.40625 46.234375 -135.53125 40.859375 -135.53125 Z M 24.21875 1.46875 C 16.394531 1.46875 10.078125 -0.972656 5.265625 -5.859375 C 0.453125 -10.753906 -1.953125 -18.097656 -1.953125 -27.890625 C -1.953125 -31.960938 -1.300781 -37.265625 0 -43.796875 L 16.640625 -122.3125 L 51.859375 -122.3125 L 34.25 -39.140625 C 33.59375 -36.691406 33.265625 -34.082031 33.265625 -31.3125 C 33.265625 -28.050781 34.039062 -25.726562 35.59375 -24.34375 C 37.144531 -22.957031 39.710938 -22.265625 43.296875 -22.265625 C 48.023438 -22.265625 52.425781 -24.257812 56.5 -28.25 C 60.582031 -32.25 63.519531 -37.429688 65.3125 -43.796875 L 75.59375 -43.796875 C 69.5625 -26.179688 61.8125 -14.234375 52.34375 -7.953125 C 42.882812 -1.671875 33.507812 1.46875 24.21875 1.46875 Z M 24.21875 1.46875 "/></g></g></g><g fill="#1a180d" fill-opacity="1"><g transform="translate(1062.397775, 361.206105)"><g><path d="M 24.21875 1.46875 C 16.394531 1.46875 10.078125 -0.972656 5.265625 -5.859375 C 0.453125 -10.753906 -1.953125 -18.097656 -1.953125 -27.890625 C -1.953125 -31.960938 -1.300781 -37.265625 0 -43.796875 L 14.671875 -112.53125 L 6.609375 -112.53125 L 8.5625 -122.3125 L 16.640625 -122.3125 L 23.96875 -156.078125 L 60.1875 -160.96875 L 51.859375 -122.3125 L 66.546875 -122.3125 L 64.578125 -112.53125 L 49.90625 -112.53125 L 34.25 -39.140625 C 33.59375 -36.691406 33.265625 -34.082031 33.265625 -31.3125 C 33.265625 -28.050781 34.039062 -25.726562 35.59375 -24.34375 C 37.144531 -22.957031 39.710938 -22.265625 43.296875 -22.265625 C 48.023438 -22.265625 52.425781 -24.257812 56.5 -28.25 C 60.582031 -32.25 63.519531 -37.429688 65.3125 -43.796875 L 75.59375 -43.796875 C 69.5625 -26.179688 61.8125 -14.234375 52.34375 -7.953125 C 42.882812 -1.671875 33.507812 1.46875 24.21875 1.46875 Z M 24.21875 1.46875 "/></g></g></g><g fill="#1a180d" fill-opacity="1"><g transform="translate(1127.716418, 361.206105)"><g><path d="M 40.859375 -135.53125 C 35.472656 -135.53125 30.90625 -137.40625 27.15625 -141.15625 C 23.40625 -144.90625 21.53125 -149.472656 21.53125 -154.859375 C 21.53125 -160.242188 23.40625 -164.847656 27.15625 -168.671875 C 30.90625 -172.503906 35.472656 -174.421875 40.859375 -174.421875 C 46.234375 -174.421875 50.835938 -172.503906 54.671875 -168.671875 C 58.503906 -164.847656 60.421875 -160.242188 60.421875 -154.859375 C 60.421875 -149.472656 58.503906 -144.90625 54.671875 -141.15625 C 50.835938 -137.40625 46.234375 -135.53125 40.859375 -135.53125 Z M 24.21875 1.46875 C 16.394531 1.46875 10.078125 -0.972656 5.265625 -5.859375 C 0.453125 -10.753906 -1.953125 -18.097656 -1.953125 -27.890625 C -1.953125 -31.960938 -1.300781 -37.265625 0 -43.796875 L 16.640625 -122.3125 L 51.859375 -122.3125 L 34.25 -39.140625 C 33.59375 -36.691406 33.265625 -34.082031 33.265625 -31.3125 C 33.265625 -28.050781 34.039062 -25.726562 35.59375 -24.34375 C 37.144531 -22.957031 39.710938 -22.265625 43.296875 -22.265625 C 48.023438 -22.265625 52.425781 -24.257812 56.5 -28.25 C 60.582031 -32.25 63.519531 -37.429688 65.3125 -43.796875 L 75.59375 -43.796875 C 69.5625 -26.179688 61.8125 -14.234375 52.34375 -7.953125 C 42.882812 -1.671875 33.507812 1.46875 24.21875 1.46875 Z M 24.21875 1.46875 "/></g></g></g><g fill="#1a180d" fill-opacity="1"><g transform="translate(1193.035061, 361.206105)"><g><path d="M 35.71875 0.984375 C 23.644531 0.984375 14.101562 -2.113281 7.09375 -8.3125 C 0.0820312 -14.507812 -3.421875 -24.296875 -3.421875 -37.671875 C -3.421875 -48.765625 -1.140625 -61.078125 3.421875 -74.609375 C 7.992188 -88.148438 15.332031 -99.851562 25.4375 -109.71875 C 35.550781 -119.582031 48.273438 -124.515625 63.609375 -124.515625 C 84.484375 -124.515625 94.921875 -111.46875 94.921875 -85.375 L 94.921875 -85.140625 C 95.410156 -84.972656 96.304688 -84.890625 97.609375 -84.890625 C 102.992188 -84.890625 109.191406 -86.316406 116.203125 -89.171875 C 123.210938 -92.023438 129.570312 -95.488281 135.28125 -99.5625 L 137.484375 -92.96875 C 132.753906 -87.90625 126.597656 -83.617188 119.015625 -80.109375 C 111.429688 -76.609375 103.15625 -74.125 94.1875 -72.65625 C 92.882812 -57.8125 89.539062 -44.84375 84.15625 -33.75 C 78.769531 -22.664062 71.835938 -14.101562 63.359375 -8.0625 C 54.878906 -2.03125 45.664062 0.984375 35.71875 0.984375 Z M 45.5 -21.046875 C 49.414062 -21.046875 53.332031 -23.285156 57.25 -27.765625 C 61.164062 -32.253906 64.585938 -38.367188 67.515625 -46.109375 C 70.453125 -53.859375 72.570312 -62.460938 73.875 -71.921875 C 69.476562 -72.898438 67.28125 -76.328125 67.28125 -82.203125 C 67.28125 -88.890625 69.804688 -93.289062 74.859375 -95.40625 C 74.535156 -100.789062 73.71875 -104.5 72.40625 -106.53125 C 71.101562 -108.570312 68.820312 -109.59375 65.5625 -109.59375 C 60.175781 -109.59375 54.957031 -105.675781 49.90625 -97.84375 C 44.851562 -90.019531 40.773438 -80.644531 37.671875 -69.71875 C 34.578125 -58.789062 33.03125 -49.171875 33.03125 -40.859375 C 33.03125 -33.023438 33.925781 -27.765625 35.71875 -25.078125 C 37.507812 -22.390625 40.769531 -21.046875 45.5 -21.046875 Z M 45.5 -21.046875 "/></g></g></g><g fill="#1a180d" fill-opacity="1"><g transform="translate(1300.431602, 361.206105)"><g><path d="M 88.3125 1.46875 C 78.363281 1.46875 71.066406 -1.179688 66.421875 -6.484375 C 61.773438 -11.785156 59.453125 -18.347656 59.453125 -26.171875 C 59.453125 -29.597656 59.859375 -33.472656 60.671875 -37.796875 C 61.484375 -42.117188 62.335938 -46.316406 63.234375 -50.390625 C 64.128906 -54.472656 64.742188 -57.082031 65.078125 -58.21875 C 66.378906 -63.925781 67.597656 -69.550781 68.734375 -75.09375 C 69.878906 -80.644531 70.453125 -85.132812 70.453125 -88.5625 C 70.453125 -96.875 67.519531 -101.03125 61.65625 -101.03125 C 57.40625 -101.03125 53.648438 -98.953125 50.390625 -94.796875 C 47.128906 -90.640625 44.519531 -85.21875 42.5625 -78.53125 L 25.9375 0 L -9.296875 0 L 16.640625 -122.3125 L 51.859375 -122.3125 L 49.171875 -109.59375 C 57.328125 -118.726562 66.867188 -123.296875 77.796875 -123.296875 C 86.109375 -123.296875 92.710938 -121.007812 97.609375 -116.4375 C 102.503906 -111.875 104.953125 -104.945312 104.953125 -95.65625 C 104.953125 -90.925781 104.378906 -85.664062 103.234375 -79.875 C 102.097656 -74.082031 100.46875 -67.03125 98.34375 -58.71875 C 97.039062 -53.65625 95.859375 -48.71875 94.796875 -43.90625 C 93.734375 -39.101562 93.203125 -35.3125 93.203125 -32.53125 C 93.203125 -29.269531 93.9375 -26.742188 95.40625 -24.953125 C 96.875 -23.160156 99.40625 -22.265625 103 -22.265625 C 107.882812 -22.265625 111.796875 -24.015625 114.734375 -27.515625 C 117.671875 -31.023438 120.609375 -36.453125 123.546875 -43.796875 L 133.8125 -43.796875 C 127.78125 -25.847656 120.804688 -13.816406 112.890625 -7.703125 C 104.984375 -1.585938 96.789062 1.46875 88.3125 1.46875 Z M 88.3125 1.46875 "/></g></g></g></svg>