<svg xmlns="http://www.w3.org/2000/svg" xmlns:xlink="http://www.w3.org/1999/xlink" width="1920" zoomAndPan="magnify" viewBox="0 0 1440 540.000001" height="720" preserveAspectRatio="xMidYMid meet" version="1.0"><defs><g/><clipPath id="ff01c80046"><path d="M 181 471.703125 L 994 471.703125 L 994 485.179688 L 181 485.179688 Z M 181 471.703125 " clip-rule="nonzero"/></clipPath></defs><g clip-path="url(#ff01c80046)"><path fill="#e8de81" d="M 993.730469 478.402344 C 993.730469 482.097656 990.734375 485.097656 987.035156 485.097656 L 188.144531 485.097656 C 184.445312 485.097656 181.449219 482.097656 181.449219 478.402344 C 181.449219 474.703125 184.445312 471.707031 188.144531 471.707031 L 987.035156 471.707031 C 990.734375 471.707031 993.730469 474.703125 993.730469 478.402344 Z M 993.730469 478.402344 " fill-opacity="1" fill-rule="nonzero"/></g><g fill="#1a180d" fill-opacity="1"><g transform="translate(144.879889, 431.010342)"><g><path d="M 19.078125 -51.15625 L 32.15625 -16.390625 L 32.3125 -16.390625 L 45.453125 -51.15625 L 60.6875 -51.15625 L 60.6875 -44.921875 L 58.15625 -44.6875 C 56.613281 -44.53125 55.867188 -43.632812 55.921875 -42 L 57.84375 -6.765625 L 62.609375 -6.53125 L 62.609375 0 L 44.078125 0 L 44.078125 -6.234375 L 46.84375 -6.46875 C 48.226562 -6.5625 48.894531 -7.226562 48.84375 -8.46875 L 47.390625 -35.609375 L 47.234375 -35.609375 L 35.390625 -4.921875 L 28.078125 -4.921875 L 16.390625 -35.3125 L 16.234375 -35.3125 L 14.6875 -6.765625 L 19.6875 -6.53125 L 19.6875 0 L 1.53125 0 L 1.53125 -6.234375 L 4.3125 -6.46875 C 5.488281 -6.5625 6.128906 -7.25 6.234375 -8.53125 L 8.3125 -44.3125 L 3.609375 -44.609375 L 3.609375 -51.15625 Z M 19.078125 -51.15625 "/></g></g></g><g fill="#1a180d" fill-opacity="1"><g transform="translate(209.015882, 431.010342)"><g><path d="M 37.078125 -37.15625 L 37.078125 -8.53125 C 37.078125 -7.71875 37.21875 -7.15625 37.5 -6.84375 C 37.78125 -6.539062 38.28125 -6.363281 39 -6.3125 L 41.453125 -6.15625 L 41.453125 0 L 29.234375 0 L 29.234375 -4.46875 L 29 -4.53125 C 26.4375 -0.84375 22.925781 1 18.46875 1 C 13.226562 1 9.351562 -0.664062 6.84375 -4 C 4.332031 -7.332031 3.078125 -11.894531 3.078125 -17.6875 C 3.078125 -24.664062 4.769531 -30.101562 8.15625 -34 C 11.539062 -37.894531 16.617188 -39.84375 23.390625 -39.84375 C 27.742188 -39.84375 32.304688 -38.945312 37.078125 -37.15625 Z M 28.15625 -12.234375 L 28.15625 -32.15625 C 26.71875 -32.820312 24.742188 -33.15625 22.234375 -33.15625 C 18.796875 -33.15625 16.304688 -31.769531 14.765625 -29 C 13.234375 -26.226562 12.46875 -22.5625 12.46875 -18 C 12.46875 -9.6875 15.132812 -5.53125 20.46875 -5.53125 C 22.71875 -5.53125 24.5625 -6.207031 26 -7.5625 C 27.4375 -8.925781 28.15625 -10.484375 28.15625 -12.234375 Z M 28.15625 -12.234375 "/></g></g></g><g fill="#1a180d" fill-opacity="1"><g transform="translate(252.619137, 431.010342)"><g><path d="M 2.078125 -32.53125 L 2.078125 -38.6875 L 15.078125 -38.6875 L 15.078125 -33.6875 C 16.410156 -35.582031 18.175781 -37.082031 20.375 -38.1875 C 22.582031 -39.289062 24.96875 -39.84375 27.53125 -39.84375 C 31.4375 -39.84375 34.453125 -38.726562 36.578125 -36.5 C 38.703125 -34.269531 39.765625 -30.925781 39.765625 -26.46875 L 39.765625 -6.390625 L 44.15625 -6.15625 L 44.15625 0 L 25.84375 0 L 25.84375 -5.84375 L 28.390625 -6.078125 C 29.148438 -6.179688 29.707031 -6.398438 30.0625 -6.734375 C 30.425781 -7.066406 30.609375 -7.691406 30.609375 -8.609375 L 30.609375 -24.46875 C 30.609375 -27.28125 30.171875 -29.363281 29.296875 -30.71875 C 28.429688 -32.082031 26.78125 -32.765625 24.34375 -32.765625 C 21.90625 -32.765625 19.96875 -31.992188 18.53125 -30.453125 C 17.101562 -28.921875 16.390625 -27.101562 16.390625 -25 L 16.390625 -6.390625 L 20.765625 -6.15625 L 20.765625 0 L 2.46875 0 L 2.46875 -5.84375 L 5 -6.078125 C 5.769531 -6.179688 6.332031 -6.398438 6.6875 -6.734375 C 7.050781 -7.066406 7.234375 -7.691406 7.234375 -8.609375 L 7.234375 -29.921875 C 7.234375 -31.460938 6.59375 -32.257812 5.3125 -32.3125 Z M 2.078125 -32.53125 "/></g></g></g><g fill="#1a180d" fill-opacity="1"><g transform="translate(298.760169, 431.010342)"><g><path d="M 36.765625 -0.078125 C 36.304688 5.617188 34.664062 9.800781 31.84375 12.46875 C 29.019531 15.132812 24.609375 16.46875 18.609375 16.46875 C 12.609375 16.46875 7.914062 15.617188 4.53125 13.921875 L 4.53125 3.234375 L 11.84375 2.609375 L 11.84375 6.3125 C 11.84375 7.695312 12.484375 8.628906 13.765625 9.109375 C 15.046875 9.597656 16.816406 9.84375 19.078125 9.84375 C 22.359375 9.84375 24.664062 8.851562 26 6.875 C 27.332031 4.90625 28 2.125 28 -1.46875 L 28 -5.6875 C 25.539062 -2.820312 22.128906 -1.390625 17.765625 -1.390625 C 15.097656 -1.390625 12.75 -1.898438 10.71875 -2.921875 C 8.695312 -3.953125 7.125 -5.335938 6 -7.078125 C 3.789062 -10.566406 2.6875 -14.671875 2.6875 -19.390625 C 2.6875 -26.109375 4.503906 -31.195312 8.140625 -34.65625 C 11.785156 -38.113281 16.632812 -39.84375 22.6875 -39.84375 C 27.71875 -39.84375 32.460938 -38.894531 36.921875 -37 L 36.921875 -8.46875 C 36.921875 -4.101562 36.867188 -1.304688 36.765625 -0.078125 Z M 28 -15.6875 L 28 -32.234375 C 26.207031 -32.847656 24.15625 -33.15625 21.84375 -33.15625 C 18.71875 -33.15625 16.320312 -32 14.65625 -29.6875 C 12.988281 -27.382812 12.15625 -24.257812 12.15625 -20.3125 C 12.15625 -12.207031 14.820312 -8.15625 20.15625 -8.15625 C 22.363281 -8.15625 24.222656 -8.832031 25.734375 -10.1875 C 27.242188 -11.550781 28 -13.382812 28 -15.6875 Z M 28 -15.6875 "/></g></g></g><g fill="#1a180d" fill-opacity="1"><g transform="translate(340.59469, 431.010342)"><g><path d="M 21.84375 -39.84375 C 25.6875 -39.84375 28.738281 -38.90625 31 -37.03125 C 33.257812 -35.164062 34.390625 -32.539062 34.390625 -29.15625 C 34.390625 -26.894531 33.898438 -24.90625 32.921875 -23.1875 C 31.953125 -21.46875 30.75 -20.117188 29.3125 -19.140625 C 27.875 -18.171875 26.128906 -17.378906 24.078125 -16.765625 C 20.640625 -15.742188 16.769531 -15.234375 12.46875 -15.234375 C 12.613281 -12.515625 13.457031 -10.320312 15 -8.65625 C 16.539062 -6.988281 18.898438 -6.15625 22.078125 -6.15625 C 25.253906 -6.15625 28.429688 -7.28125 31.609375 -9.53125 L 34.53125 -3.3125 C 33.507812 -2.382812 31.78125 -1.429688 29.34375 -0.453125 C 26.90625 0.515625 24.125 1 21 1 C 14.738281 1 10.144531 -0.726562 7.21875 -4.1875 C 4.300781 -7.65625 2.84375 -12.410156 2.84375 -18.453125 C 2.84375 -24.503906 4.507812 -29.582031 7.84375 -33.6875 C 11.175781 -37.789062 15.84375 -39.84375 21.84375 -39.84375 Z M 18.34375 -22.265625 C 20.21875 -22.597656 21.945312 -23.34375 23.53125 -24.5 C 25.125 -25.65625 25.921875 -27.023438 25.921875 -28.609375 C 25.921875 -31.742188 24.382812 -33.3125 21.3125 -33.3125 C 18.4375 -33.3125 16.226562 -32.171875 14.6875 -29.890625 C 13.15625 -27.609375 12.3125 -24.875 12.15625 -21.6875 C 14.40625 -21.738281 16.46875 -21.929688 18.34375 -22.265625 Z M 18.34375 -22.265625 "/></g></g></g><g fill="#1a180d" fill-opacity="1"><g transform="translate(377.815134, 431.010342)"><g><path d="M 7.3125 -8.609375 L 7.3125 -29.921875 C 7.3125 -30.742188 7.171875 -31.320312 6.890625 -31.65625 C 6.609375 -31.988281 6.109375 -32.179688 5.390625 -32.234375 L 2.15625 -32.46875 L 2.15625 -38.6875 L 15.15625 -38.6875 L 15.15625 -32.921875 C 16.070312 -34.921875 17.503906 -36.570312 19.453125 -37.875 C 21.410156 -39.1875 23.65625 -39.84375 26.1875 -39.84375 C 28.726562 -39.84375 31.15625 -39.28125 33.46875 -38.15625 L 33.46875 -26.6875 L 26.3125 -26.15625 L 26.3125 -29.6875 C 26.3125 -30.71875 26.050781 -31.359375 25.53125 -31.609375 C 24.96875 -31.867188 24.28125 -32 23.46875 -32 C 21.414062 -32 19.734375 -31.265625 18.421875 -29.796875 C 17.117188 -28.335938 16.46875 -26.484375 16.46875 -24.234375 L 16.46875 -6.390625 L 23.15625 -6.078125 L 23.15625 0 L 2.53125 0 L 2.53125 -5.84375 L 5.078125 -6.078125 C 5.847656 -6.179688 6.410156 -6.398438 6.765625 -6.734375 C 7.128906 -7.066406 7.3125 -7.691406 7.3125 -8.609375 Z M 7.3125 -8.609375 "/></g></g></g><g fill="#1a180d" fill-opacity="1"><g transform="translate(413.343705, 431.010342)"><g/></g></g><g fill="#1a180d" fill-opacity="1"><g transform="translate(428.724028, 431.010342)"><g><path d="M 22.6875 -32.84375 C 21.457031 -33.300781 19.96875 -33.53125 18.21875 -33.53125 C 16.476562 -33.53125 15.082031 -33.132812 14.03125 -32.34375 C 12.988281 -31.550781 12.46875 -30.578125 12.46875 -29.421875 C 12.46875 -28.265625 12.65625 -27.363281 13.03125 -26.71875 C 13.414062 -26.082031 14.019531 -25.535156 14.84375 -25.078125 C 16.125 -24.410156 17.660156 -23.832031 19.453125 -23.34375 C 21.253906 -22.851562 22.585938 -22.46875 23.453125 -22.1875 C 24.328125 -21.90625 25.414062 -21.429688 26.71875 -20.765625 C 28.03125 -20.097656 29.019531 -19.378906 29.6875 -18.609375 C 31.488281 -16.710938 32.390625 -14.28125 32.390625 -11.3125 C 32.390625 -7.457031 30.988281 -4.441406 28.1875 -2.265625 C 25.394531 -0.0859375 21.84375 1 17.53125 1 C 11.28125 1 6.566406 0.203125 3.390625 -1.390625 L 3.390625 -12.078125 L 10.3125 -12.609375 L 10.3125 -8.921875 C 10.3125 -6.660156 12.460938 -5.53125 16.765625 -5.53125 C 21.078125 -5.53125 23.234375 -7.097656 23.234375 -10.234375 C 23.234375 -11.359375 22.859375 -12.28125 22.109375 -13 C 21.367188 -13.71875 20.640625 -14.203125 19.921875 -14.453125 C 19.203125 -14.710938 18.34375 -14.96875 17.34375 -15.21875 C 16.34375 -15.476562 15.367188 -15.738281 14.421875 -16 C 13.472656 -16.257812 12.445312 -16.601562 11.34375 -17.03125 C 10.238281 -17.46875 9.019531 -18.097656 7.6875 -18.921875 C 5.070312 -20.617188 3.765625 -23.453125 3.765625 -27.421875 C 3.765625 -31.398438 5.175781 -34.460938 8 -36.609375 C 10.820312 -38.765625 14.375 -39.84375 18.65625 -39.84375 C 22.9375 -39.84375 27.179688 -38.816406 31.390625 -36.765625 L 31.390625 -27.53125 L 24.46875 -27 L 24.46875 -30.234375 C 24.46875 -31.515625 23.875 -32.382812 22.6875 -32.84375 Z M 22.6875 -32.84375 "/></g></g></g><g fill="#1a180d" fill-opacity="1"><g transform="translate(463.406693, 431.010342)"><g><path d="M 37.078125 -37.15625 L 37.078125 -8.53125 C 37.078125 -7.71875 37.21875 -7.15625 37.5 -6.84375 C 37.78125 -6.539062 38.28125 -6.363281 39 -6.3125 L 41.453125 -6.15625 L 41.453125 0 L 29.234375 0 L 29.234375 -4.46875 L 29 -4.53125 C 26.4375 -0.84375 22.925781 1 18.46875 1 C 13.226562 1 9.351562 -0.664062 6.84375 -4 C 4.332031 -7.332031 3.078125 -11.894531 3.078125 -17.6875 C 3.078125 -24.664062 4.769531 -30.101562 8.15625 -34 C 11.539062 -37.894531 16.617188 -39.84375 23.390625 -39.84375 C 27.742188 -39.84375 32.304688 -38.945312 37.078125 -37.15625 Z M 28.15625 -12.234375 L 28.15625 -32.15625 C 26.71875 -32.820312 24.742188 -33.15625 22.234375 -33.15625 C 18.796875 -33.15625 16.304688 -31.769531 14.765625 -29 C 13.234375 -26.226562 12.46875 -22.5625 12.46875 -18 C 12.46875 -9.6875 15.132812 -5.53125 20.46875 -5.53125 C 22.71875 -5.53125 24.5625 -6.207031 26 -7.5625 C 27.4375 -8.925781 28.15625 -10.484375 28.15625 -12.234375 Z M 28.15625 -12.234375 "/></g></g></g><g fill="#1a180d" fill-opacity="1"><g transform="translate(507.009948, 431.010342)"><g><path d="M 2.078125 -32.53125 L 2.078125 -38.6875 L 15.078125 -38.6875 L 15.078125 -33.6875 C 16.410156 -35.582031 18.175781 -37.082031 20.375 -38.1875 C 22.582031 -39.289062 24.96875 -39.84375 27.53125 -39.84375 C 31.4375 -39.84375 34.453125 -38.726562 36.578125 -36.5 C 38.703125 -34.269531 39.765625 -30.925781 39.765625 -26.46875 L 39.765625 -6.390625 L 44.15625 -6.15625 L 44.15625 0 L 25.84375 0 L 25.84375 -5.84375 L 28.390625 -6.078125 C 29.148438 -6.179688 29.707031 -6.398438 30.0625 -6.734375 C 30.425781 -7.066406 30.609375 -7.691406 30.609375 -8.609375 L 30.609375 -24.46875 C 30.609375 -27.28125 30.171875 -29.363281 29.296875 -30.71875 C 28.429688 -32.082031 26.78125 -32.765625 24.34375 -32.765625 C 21.90625 -32.765625 19.96875 -31.992188 18.53125 -30.453125 C 17.101562 -28.921875 16.390625 -27.101562 16.390625 -25 L 16.390625 -6.390625 L 20.765625 -6.15625 L 20.765625 0 L 2.46875 0 L 2.46875 -5.84375 L 5 -6.078125 C 5.769531 -6.179688 6.332031 -6.398438 6.6875 -6.734375 C 7.050781 -7.066406 7.234375 -7.691406 7.234375 -8.609375 L 7.234375 -29.921875 C 7.234375 -31.460938 6.59375 -32.257812 5.3125 -32.3125 Z M 2.078125 -32.53125 "/></g></g></g><g fill="#1a180d" fill-opacity="1"><g transform="translate(553.15098, 431.010342)"><g><path d="M 22.6875 -32.84375 C 21.457031 -33.300781 19.96875 -33.53125 18.21875 -33.53125 C 16.476562 -33.53125 15.082031 -33.132812 14.03125 -32.34375 C 12.988281 -31.550781 12.46875 -30.578125 12.46875 -29.421875 C 12.46875 -28.265625 12.65625 -27.363281 13.03125 -26.71875 C 13.414062 -26.082031 14.019531 -25.535156 14.84375 -25.078125 C 16.125 -24.410156 17.660156 -23.832031 19.453125 -23.34375 C 21.253906 -22.851562 22.585938 -22.46875 23.453125 -22.1875 C 24.328125 -21.90625 25.414062 -21.429688 26.71875 -20.765625 C 28.03125 -20.097656 29.019531 -19.378906 29.6875 -18.609375 C 31.488281 -16.710938 32.390625 -14.28125 32.390625 -11.3125 C 32.390625 -7.457031 30.988281 -4.441406 28.1875 -2.265625 C 25.394531 -0.0859375 21.84375 1 17.53125 1 C 11.28125 1 6.566406 0.203125 3.390625 -1.390625 L 3.390625 -12.078125 L 10.3125 -12.609375 L 10.3125 -8.921875 C 10.3125 -6.660156 12.460938 -5.53125 16.765625 -5.53125 C 21.078125 -5.53125 23.234375 -7.097656 23.234375 -10.234375 C 23.234375 -11.359375 22.859375 -12.28125 22.109375 -13 C 21.367188 -13.71875 20.640625 -14.203125 19.921875 -14.453125 C 19.203125 -14.710938 18.34375 -14.96875 17.34375 -15.21875 C 16.34375 -15.476562 15.367188 -15.738281 14.421875 -16 C 13.472656 -16.257812 12.445312 -16.601562 11.34375 -17.03125 C 10.238281 -17.46875 9.019531 -18.097656 7.6875 -18.921875 C 5.070312 -20.617188 3.765625 -23.453125 3.765625 -27.421875 C 3.765625 -31.398438 5.175781 -34.460938 8 -36.609375 C 10.820312 -38.765625 14.375 -39.84375 18.65625 -39.84375 C 22.9375 -39.84375 27.179688 -38.816406 31.390625 -36.765625 L 31.390625 -27.53125 L 24.46875 -27 L 24.46875 -30.234375 C 24.46875 -31.515625 23.875 -32.382812 22.6875 -32.84375 Z M 22.6875 -32.84375 "/></g></g></g><g fill="#1a180d" fill-opacity="1"><g transform="translate(587.833646, 431.010342)"><g/></g></g><g fill="#1a180d" fill-opacity="1"><g transform="translate(603.213969, 431.010342)"><g><path d="M 11.84375 -19.765625 C 11.84375 -15.410156 12.660156 -12.023438 14.296875 -9.609375 C 15.941406 -7.203125 18.316406 -6 21.421875 -6 C 24.523438 -6 27.585938 -7.101562 30.609375 -9.3125 L 33.921875 -3.390625 C 30.285156 -0.410156 25.722656 1.078125 20.234375 1.078125 C 14.742188 1.078125 10.421875 -0.648438 7.265625 -4.109375 C 4.109375 -7.578125 2.53125 -12.691406 2.53125 -19.453125 C 2.53125 -26.222656 4.335938 -31.3125 7.953125 -34.71875 C 11.578125 -38.132812 15.65625 -39.84375 20.1875 -39.84375 C 24.726562 -39.84375 28.945312 -38.789062 32.84375 -36.6875 L 32.84375 -26.6875 L 25.765625 -26.15625 L 25.765625 -29.84375 C 25.765625 -31.226562 25.265625 -32.085938 24.265625 -32.421875 C 23.265625 -32.753906 22.226562 -32.921875 21.15625 -32.921875 C 14.945312 -32.921875 11.84375 -28.535156 11.84375 -19.765625 Z M 11.84375 -19.765625 "/></g></g></g><g fill="#1a180d" fill-opacity="1"><g transform="translate(639.43466, 431.010342)"><g><path d="M 43.3125 -6.078125 L 43.3125 0 L 30.84375 0 L 30.84375 -5 C 28.019531 -1 23.867188 1 18.390625 1 C 10.441406 1 6.46875 -3.4375 6.46875 -12.3125 L 6.46875 -30.078125 C 6.46875 -31.460938 5.820312 -32.179688 4.53125 -32.234375 L 2.078125 -32.390625 L 2.078125 -38.6875 L 15.609375 -38.6875 L 15.609375 -14.3125 C 15.609375 -11.59375 15.992188 -9.539062 16.765625 -8.15625 C 17.535156 -6.769531 19.125 -6.078125 21.53125 -6.078125 C 23.945312 -6.078125 25.882812 -6.816406 27.34375 -8.296875 C 28.800781 -9.785156 29.53125 -11.582031 29.53125 -13.6875 L 29.53125 -29.921875 C 29.53125 -30.742188 29.390625 -31.320312 29.109375 -31.65625 C 28.828125 -31.988281 28.328125 -32.179688 27.609375 -32.234375 L 25.15625 -32.390625 L 25.15625 -38.6875 L 38.6875 -38.6875 L 38.6875 -8.53125 C 38.6875 -7.71875 38.816406 -7.171875 39.078125 -6.890625 C 39.335938 -6.609375 39.847656 -6.414062 40.609375 -6.3125 Z M 43.3125 -6.078125 "/></g></g></g><g fill="#1a180d" fill-opacity="1"><g transform="translate(684.883571, 431.010342)"><g><path d="M 16.3125 -54.84375 L 16.3125 -6.390625 L 20.6875 -6.15625 L 20.6875 0 L 2.390625 0 L 2.390625 -5.84375 L 4.921875 -6.078125 C 6.410156 -6.234375 7.15625 -7.050781 7.15625 -8.53125 L 7.15625 -46.453125 C 7.15625 -47.585938 6.515625 -48.207031 5.234375 -48.3125 L 2.53125 -48.453125 L 2.53125 -54.84375 Z M 16.3125 -54.84375 "/></g></g></g><g fill="#1a180d" fill-opacity="1"><g transform="translate(707.800304, 431.010342)"><g><path d="M 6.84375 7.3125 L 6.84375 -29.921875 C 6.84375 -30.796875 6.703125 -31.398438 6.421875 -31.734375 C 6.140625 -32.066406 5.640625 -32.234375 4.921875 -32.234375 L 1.6875 -32.46875 L 1.6875 -38.6875 L 14.6875 -38.6875 L 14.6875 -33.6875 C 15.507812 -35.226562 17 -36.640625 19.15625 -37.921875 C 21.3125 -39.203125 23.875 -39.84375 26.84375 -39.84375 C 36.125 -39.84375 40.765625 -33.332031 40.765625 -20.3125 C 40.765625 -13.382812 39.25 -8.070312 36.21875 -4.375 C 33.195312 -0.6875 29.097656 1.15625 23.921875 1.15625 C 20.847656 1.15625 18.101562 0.410156 15.6875 -1.078125 L 15.6875 9.53125 L 21.921875 9.84375 L 21.921875 15.921875 L 2.078125 15.921875 L 2.078125 10.078125 L 4.609375 9.84375 C 5.378906 9.738281 5.941406 9.519531 6.296875 9.1875 C 6.660156 8.851562 6.84375 8.226562 6.84375 7.3125 Z M 31.234375 -19.53125 C 31.234375 -28.101562 28.644531 -32.390625 23.46875 -32.390625 C 21.3125 -32.390625 19.472656 -31.734375 17.953125 -30.421875 C 16.441406 -29.117188 15.6875 -27.566406 15.6875 -25.765625 L 15.6875 -8.078125 C 17.632812 -6.796875 20.003906 -6.15625 22.796875 -6.15625 C 25.597656 -6.15625 27.703125 -7.4375 29.109375 -10 C 30.523438 -12.5625 31.234375 -15.738281 31.234375 -19.53125 Z M 31.234375 -19.53125 "/></g></g></g><g fill="#1a180d" fill-opacity="1"><g transform="translate(751.480482, 431.010342)"><g><path d="M 37.078125 -37.15625 L 37.078125 -8.53125 C 37.078125 -7.71875 37.21875 -7.15625 37.5 -6.84375 C 37.78125 -6.539062 38.28125 -6.363281 39 -6.3125 L 41.453125 -6.15625 L 41.453125 0 L 29.234375 0 L 29.234375 -4.46875 L 29 -4.53125 C 26.4375 -0.84375 22.925781 1 18.46875 1 C 13.226562 1 9.351562 -0.664062 6.84375 -4 C 4.332031 -7.332031 3.078125 -11.894531 3.078125 -17.6875 C 3.078125 -24.664062 4.769531 -30.101562 8.15625 -34 C 11.539062 -37.894531 16.617188 -39.84375 23.390625 -39.84375 C 27.742188 -39.84375 32.304688 -38.945312 37.078125 -37.15625 Z M 28.15625 -12.234375 L 28.15625 -32.15625 C 26.71875 -32.820312 24.742188 -33.15625 22.234375 -33.15625 C 18.796875 -33.15625 16.304688 -31.769531 14.765625 -29 C 13.234375 -26.226562 12.46875 -22.5625 12.46875 -18 C 12.46875 -9.6875 15.132812 -5.53125 20.46875 -5.53125 C 22.71875 -5.53125 24.5625 -6.207031 26 -7.5625 C 27.4375 -8.925781 28.15625 -10.484375 28.15625 -12.234375 Z M 28.15625 -12.234375 "/></g></g></g><g fill="#1a180d" fill-opacity="1"><g transform="translate(795.083736, 431.010342)"><g><path d="M 5.921875 -2.3125 L 5.921875 -46.453125 C 5.921875 -47.640625 5.28125 -48.257812 4 -48.3125 L 1.3125 -48.453125 L 1.3125 -54.84375 L 14.84375 -54.84375 L 14.84375 -36.609375 C 17.15625 -38.765625 20.257812 -39.84375 24.15625 -39.84375 C 28.976562 -39.84375 32.796875 -38.210938 35.609375 -34.953125 C 38.429688 -31.703125 39.84375 -27.128906 39.84375 -21.234375 C 39.84375 -6.410156 33.640625 1 21.234375 1 C 18.566406 1 15.757812 0.675781 12.8125 0.03125 C 9.863281 -0.601562 7.566406 -1.382812 5.921875 -2.3125 Z M 14.84375 -27.234375 L 14.84375 -7.3125 C 16.789062 -6.28125 19.046875 -5.765625 21.609375 -5.765625 C 27.460938 -5.765625 30.390625 -10.507812 30.390625 -20 C 30.390625 -28.664062 27.515625 -33 21.765625 -33 C 19.921875 -33 18.304688 -32.457031 16.921875 -31.375 C 15.535156 -30.300781 14.84375 -28.921875 14.84375 -27.234375 Z M 14.84375 -27.234375 "/></g></g></g><g fill="#1a180d" fill-opacity="1"><g transform="translate(837.841086, 431.010342)"><g><path d="M 16.46875 -38.6875 L 16.46875 -6.390625 L 20.84375 -6.15625 L 20.84375 0 L 2.53125 0 L 2.53125 -5.84375 L 5.078125 -6.078125 C 6.566406 -6.234375 7.3125 -7.050781 7.3125 -8.53125 L 7.3125 -29.921875 C 7.3125 -30.796875 7.171875 -31.382812 6.890625 -31.6875 C 6.609375 -32 6.109375 -32.15625 5.390625 -32.15625 L 2.6875 -32.3125 L 2.6875 -38.6875 Z M 6.765625 -45.34375 C 5.691406 -46.394531 5.15625 -47.738281 5.15625 -49.375 C 5.15625 -51.019531 5.691406 -52.394531 6.765625 -53.5 C 7.847656 -54.601562 9.257812 -55.15625 11 -55.15625 C 12.738281 -55.15625 14.160156 -54.601562 15.265625 -53.5 C 16.367188 -52.394531 16.921875 -51.019531 16.921875 -49.375 C 16.921875 -47.738281 16.367188 -46.394531 15.265625 -45.34375 C 14.160156 -44.289062 12.738281 -43.765625 11 -43.765625 C 9.257812 -43.765625 7.847656 -44.289062 6.765625 -45.34375 Z M 6.765625 -45.34375 "/></g></g></g><g fill="#1a180d" fill-opacity="1"><g transform="translate(860.603971, 431.010342)"><g><path d="M 16.3125 -54.84375 L 16.3125 -6.390625 L 20.6875 -6.15625 L 20.6875 0 L 2.390625 0 L 2.390625 -5.84375 L 4.921875 -6.078125 C 6.410156 -6.234375 7.15625 -7.050781 7.15625 -8.53125 L 7.15625 -46.453125 C 7.15625 -47.585938 6.515625 -48.207031 5.234375 -48.3125 L 2.53125 -48.453125 L 2.53125 -54.84375 Z M 16.3125 -54.84375 "/></g></g></g><g fill="#1a180d" fill-opacity="1"><g transform="translate(883.520704, 431.010342)"><g><path d="M 16.46875 -38.6875 L 16.46875 -6.390625 L 20.84375 -6.15625 L 20.84375 0 L 2.53125 0 L 2.53125 -5.84375 L 5.078125 -6.078125 C 6.566406 -6.234375 7.3125 -7.050781 7.3125 -8.53125 L 7.3125 -29.921875 C 7.3125 -30.796875 7.171875 -31.382812 6.890625 -31.6875 C 6.609375 -32 6.109375 -32.15625 5.390625 -32.15625 L 2.6875 -32.3125 L 2.6875 -38.6875 Z M 6.765625 -45.34375 C 5.691406 -46.394531 5.15625 -47.738281 5.15625 -49.375 C 5.15625 -51.019531 5.691406 -52.394531 6.765625 -53.5 C 7.847656 -54.601562 9.257812 -55.15625 11 -55.15625 C 12.738281 -55.15625 14.160156 -54.601562 15.265625 -53.5 C 16.367188 -52.394531 16.921875 -51.019531 16.921875 -49.375 C 16.921875 -47.738281 16.367188 -46.394531 15.265625 -45.34375 C 14.160156 -44.289062 12.738281 -43.765625 11 -43.765625 C 9.257812 -43.765625 7.847656 -44.289062 6.765625 -45.34375 Z M 6.765625 -45.34375 "/></g></g></g><g fill="#1a180d" fill-opacity="1"><g transform="translate(906.283589, 431.010342)"><g><path d="M 22.6875 -32.84375 C 21.457031 -33.300781 19.96875 -33.53125 18.21875 -33.53125 C 16.476562 -33.53125 15.082031 -33.132812 14.03125 -32.34375 C 12.988281 -31.550781 12.46875 -30.578125 12.46875 -29.421875 C 12.46875 -28.265625 12.65625 -27.363281 13.03125 -26.71875 C 13.414062 -26.082031 14.019531 -25.535156 14.84375 -25.078125 C 16.125 -24.410156 17.660156 -23.832031 19.453125 -23.34375 C 21.253906 -22.851562 22.585938 -22.46875 23.453125 -22.1875 C 24.328125 -21.90625 25.414062 -21.429688 26.71875 -20.765625 C 28.03125 -20.097656 29.019531 -19.378906 29.6875 -18.609375 C 31.488281 -16.710938 32.390625 -14.28125 32.390625 -11.3125 C 32.390625 -7.457031 30.988281 -4.441406 28.1875 -2.265625 C 25.394531 -0.0859375 21.84375 1 17.53125 1 C 11.28125 1 6.566406 0.203125 3.390625 -1.390625 L 3.390625 -12.078125 L 10.3125 -12.609375 L 10.3125 -8.921875 C 10.3125 -6.660156 12.460938 -5.53125 16.765625 -5.53125 C 21.078125 -5.53125 23.234375 -7.097656 23.234375 -10.234375 C 23.234375 -11.359375 22.859375 -12.28125 22.109375 -13 C 21.367188 -13.71875 20.640625 -14.203125 19.921875 -14.453125 C 19.203125 -14.710938 18.34375 -14.96875 17.34375 -15.21875 C 16.34375 -15.476562 15.367188 -15.738281 14.421875 -16 C 13.472656 -16.257812 12.445312 -16.601562 11.34375 -17.03125 C 10.238281 -17.46875 9.019531 -18.097656 7.6875 -18.921875 C 5.070312 -20.617188 3.765625 -23.453125 3.765625 -27.421875 C 3.765625 -31.398438 5.175781 -34.460938 8 -36.609375 C 10.820312 -38.765625 14.375 -39.84375 18.65625 -39.84375 C 22.9375 -39.84375 27.179688 -38.816406 31.390625 -36.765625 L 31.390625 -27.53125 L 24.46875 -27 L 24.46875 -30.234375 C 24.46875 -31.515625 23.875 -32.382812 22.6875 -32.84375 Z M 22.6875 -32.84375 "/></g></g></g><g fill="#1a180d" fill-opacity="1"><g transform="translate(940.966255, 431.010342)"><g><path d="M 21.84375 -39.84375 C 25.6875 -39.84375 28.738281 -38.90625 31 -37.03125 C 33.257812 -35.164062 34.390625 -32.539062 34.390625 -29.15625 C 34.390625 -26.894531 33.898438 -24.90625 32.921875 -23.1875 C 31.953125 -21.46875 30.75 -20.117188 29.3125 -19.140625 C 27.875 -18.171875 26.128906 -17.378906 24.078125 -16.765625 C 20.640625 -15.742188 16.769531 -15.234375 12.46875 -15.234375 C 12.613281 -12.515625 13.457031 -10.320312 15 -8.65625 C 16.539062 -6.988281 18.898438 -6.15625 22.078125 -6.15625 C 25.253906 -6.15625 28.429688 -7.28125 31.609375 -9.53125 L 34.53125 -3.3125 C 33.507812 -2.382812 31.78125 -1.429688 29.34375 -0.453125 C 26.90625 0.515625 24.125 1 21 1 C 14.738281 1 10.144531 -0.726562 7.21875 -4.1875 C 4.300781 -7.65625 2.84375 -12.410156 2.84375 -18.453125 C 2.84375 -24.503906 4.507812 -29.582031 7.84375 -33.6875 C 11.175781 -37.789062 15.84375 -39.84375 21.84375 -39.84375 Z M 18.34375 -22.265625 C 20.21875 -22.597656 21.945312 -23.34375 23.53125 -24.5 C 25.125 -25.65625 25.921875 -27.023438 25.921875 -28.609375 C 25.921875 -31.742188 24.382812 -33.3125 21.3125 -33.3125 C 18.4375 -33.3125 16.226562 -32.171875 14.6875 -29.890625 C 13.15625 -27.609375 12.3125 -24.875 12.15625 -21.6875 C 14.40625 -21.738281 16.46875 -21.929688 18.34375 -22.265625 Z M 18.34375 -22.265625 "/></g></g></g><g fill="#1a180d" fill-opacity="1"><g transform="translate(978.186699, 431.010342)"><g><path d="M 7.3125 -8.609375 L 7.3125 -29.921875 C 7.3125 -30.742188 7.171875 -31.320312 6.890625 -31.65625 C 6.609375 -31.988281 6.109375 -32.179688 5.390625 -32.234375 L 2.15625 -32.46875 L 2.15625 -38.6875 L 15.15625 -38.6875 L 15.15625 -32.921875 C 16.070312 -34.921875 17.503906 -36.570312 19.453125 -37.875 C 21.410156 -39.1875 23.65625 -39.84375 26.1875 -39.84375 C 28.726562 -39.84375 31.15625 -39.28125 33.46875 -38.15625 L 33.46875 -26.6875 L 26.3125 -26.15625 L 26.3125 -29.6875 C 26.3125 -30.71875 26.050781 -31.359375 25.53125 -31.609375 C 24.96875 -31.867188 24.28125 -32 23.46875 -32 C 21.414062 -32 19.734375 -31.265625 18.421875 -29.796875 C 17.117188 -28.335938 16.46875 -26.484375 16.46875 -24.234375 L 16.46875 -6.390625 L 23.15625 -6.078125 L 23.15625 0 L 2.53125 0 L 2.53125 -5.84375 L 5.078125 -6.078125 C 5.847656 -6.179688 6.410156 -6.398438 6.765625 -6.734375 C 7.128906 -7.066406 7.3125 -7.691406 7.3125 -8.609375 Z M 7.3125 -8.609375 "/></g></g></g><g fill="#1a180d" fill-opacity="1"><g transform="translate(18.120903, 354.946797)"><g><path d="M 117.203125 4.140625 C 104.460938 4.140625 91.507812 -1.484375 78.34375 -12.734375 L 75.796875 0 L 29.9375 0 L 73.25 -202.546875 L 120.375 -208.921875 L 82.171875 -30.25 C 88.109375 -26.007812 94.15625 -23.890625 100.3125 -23.890625 C 112.414062 -23.890625 123.082031 -30.894531 132.3125 -44.90625 C 141.550781 -58.914062 148.71875 -76.75 153.8125 -98.40625 C 158.914062 -120.0625 161.46875 -141.929688 161.46875 -164.015625 C 161.46875 -184.816406 157.378906 -200.046875 149.203125 -209.703125 C 141.023438 -219.367188 129.613281 -224.203125 114.96875 -224.203125 C 99.039062 -224.203125 84.757812 -221.066406 72.125 -214.796875 C 59.5 -208.535156 49.578125 -199.566406 42.359375 -187.890625 C 35.140625 -176.210938 31.53125 -162.519531 31.53125 -146.8125 C 31.53125 -138.957031 32.269531 -133.488281 33.75 -130.40625 C 35.238281 -127.332031 35.984375 -125.582031 35.984375 -125.15625 C 24.941406 -125.15625 16.5 -127.488281 10.65625 -132.15625 C 4.820312 -136.832031 1.90625 -144.375 1.90625 -154.78125 C 1.90625 -169.21875 7.316406 -182.910156 18.140625 -195.859375 C 28.972656 -208.804688 43.46875 -219.207031 61.625 -227.0625 C 79.78125 -234.925781 99.363281 -238.859375 120.375 -238.859375 C 149.46875 -238.859375 170.910156 -230.257812 184.703125 -213.0625 C 198.503906 -195.863281 205.40625 -173.882812 205.40625 -147.125 C 205.40625 -122.925781 201.316406 -99.097656 193.140625 -75.640625 C 184.972656 -52.179688 174.09375 -33.019531 160.5 -18.15625 C 146.914062 -3.289062 132.484375 4.140625 117.203125 4.140625 Z M 117.203125 4.140625 "/></g></g></g><g fill="#1a180d" fill-opacity="1"><g transform="translate(229.238041, 354.946797)"><g><path d="M 53.1875 -176.4375 C 46.175781 -176.4375 40.226562 -178.875 35.34375 -183.75 C 30.46875 -188.632812 28.03125 -194.582031 28.03125 -201.59375 C 28.03125 -208.59375 30.46875 -214.585938 35.34375 -219.578125 C 40.226562 -224.566406 46.175781 -227.0625 53.1875 -227.0625 C 60.1875 -227.0625 66.179688 -224.566406 71.171875 -219.578125 C 76.160156 -214.585938 78.65625 -208.59375 78.65625 -201.59375 C 78.65625 -194.582031 76.160156 -188.632812 71.171875 -183.75 C 66.179688 -178.875 60.1875 -176.4375 53.1875 -176.4375 Z M 31.53125 1.90625 C 21.332031 1.90625 13.101562 -1.273438 6.84375 -7.640625 C 0.582031 -14.015625 -2.546875 -23.570312 -2.546875 -36.3125 C -2.546875 -41.613281 -1.695312 -48.507812 0 -57 L 21.65625 -159.234375 L 67.515625 -159.234375 L 44.578125 -50.953125 C 43.734375 -47.765625 43.3125 -44.367188 43.3125 -40.765625 C 43.3125 -36.515625 44.316406 -33.488281 46.328125 -31.6875 C 48.347656 -29.882812 51.695312 -28.984375 56.375 -28.984375 C 62.53125 -28.984375 68.257812 -31.582031 73.5625 -36.78125 C 78.875 -41.976562 82.695312 -48.71875 85.03125 -57 L 98.40625 -57 C 90.550781 -34.070312 80.46875 -18.519531 68.15625 -10.34375 C 55.84375 -2.175781 43.632812 1.90625 31.53125 1.90625 Z M 31.53125 1.90625 "/></g></g></g><g fill="#1a180d" fill-opacity="1"><g transform="translate(314.258055, 354.946797)"><g><path d="M 45.546875 1.90625 C 29.828125 1.90625 17.613281 -2.175781 8.90625 -10.34375 C 0.207031 -18.519531 -4.140625 -31.3125 -4.140625 -48.71875 C -4.140625 -63.375 -1.273438 -79.507812 4.453125 -97.125 C 10.191406 -114.75 19.535156 -129.984375 32.484375 -142.828125 C 45.429688 -155.671875 61.882812 -162.09375 81.84375 -162.09375 C 105.195312 -162.09375 116.875 -151.90625 116.875 -131.53125 C 116.875 -119.632812 113.476562 -108.695312 106.6875 -98.71875 C 99.894531 -88.738281 90.867188 -80.722656 79.609375 -74.671875 C 68.359375 -68.628906 56.363281 -65.179688 43.625 -64.328125 C 43.207031 -57.960938 43 -53.71875 43 -51.59375 C 43 -41.1875 44.800781 -34.125 48.40625 -30.40625 C 52.019531 -26.695312 57.859375 -24.84375 65.921875 -24.84375 C 77.390625 -24.84375 87.207031 -27.492188 95.375 -32.796875 C 103.550781 -38.109375 112.523438 -46.175781 122.296875 -57 L 133.125 -57 C 109.550781 -17.726562 80.359375 1.90625 45.546875 1.90625 Z M 46.171875 -79.625 C 54.035156 -80.039062 61.519531 -82.796875 68.625 -87.890625 C 75.738281 -92.992188 81.472656 -99.472656 85.828125 -107.328125 C 90.179688 -115.179688 92.359375 -123.460938 92.359375 -132.171875 C 92.359375 -140.867188 89.703125 -145.21875 84.390625 -145.21875 C 76.742188 -145.21875 69.257812 -138.53125 61.9375 -125.15625 C 54.613281 -111.78125 49.359375 -96.601562 46.171875 -79.625 Z M 46.171875 -79.625 "/></g></g></g><g fill="#1a180d" fill-opacity="1"><g transform="translate(436.534046, 354.946797)"><g><path d="M 31.53125 1.90625 C 21.332031 1.90625 13.101562 -1.273438 6.84375 -7.640625 C 0.582031 -14.015625 -2.546875 -23.570312 -2.546875 -36.3125 C -2.546875 -41.613281 -1.695312 -48.507812 0 -57 L 19.109375 -146.5 L 8.59375 -146.5 L 11.140625 -159.234375 L 21.65625 -159.234375 L 31.203125 -203.1875 L 78.34375 -209.546875 L 67.515625 -159.234375 L 86.625 -159.234375 L 84.078125 -146.5 L 64.96875 -146.5 L 44.578125 -50.953125 C 43.734375 -47.765625 43.3125 -44.367188 43.3125 -40.765625 C 43.3125 -36.515625 44.316406 -33.488281 46.328125 -31.6875 C 48.347656 -29.882812 51.695312 -28.984375 56.375 -28.984375 C 62.53125 -28.984375 68.257812 -31.582031 73.5625 -36.78125 C 78.875 -41.976562 82.695312 -48.71875 85.03125 -57 L 98.40625 -57 C 90.550781 -34.070312 80.46875 -18.519531 68.15625 -10.34375 C 55.84375 -2.175781 43.632812 1.90625 31.53125 1.90625 Z M 31.53125 1.90625 "/></g></g></g><g fill="#1a180d" fill-opacity="1"><g transform="translate(521.55406, 354.946797)"><g><path d="M 38.21875 1.90625 C 26.113281 1.90625 16.023438 -2.234375 7.953125 -10.515625 C -0.109375 -18.796875 -4.140625 -31.742188 -4.140625 -49.359375 C -4.140625 -65.066406 -1.007812 -81.570312 5.25 -98.875 C 11.519531 -116.1875 20.863281 -130.835938 33.28125 -142.828125 C 45.695312 -154.828125 60.503906 -160.828125 77.703125 -160.828125 C 86.410156 -160.828125 92.882812 -159.335938 97.125 -156.359375 C 101.375 -153.390625 103.5 -149.460938 103.5 -144.578125 L 103.5 -142.359375 L 107 -159.234375 L 152.859375 -159.234375 L 129.9375 -50.953125 C 129.082031 -47.765625 128.65625 -44.367188 128.65625 -40.765625 C 128.65625 -31.628906 133.007812 -27.0625 141.71875 -27.0625 C 147.664062 -27.0625 152.8125 -29.820312 157.15625 -35.34375 C 161.507812 -40.863281 164.960938 -48.082031 167.515625 -57 L 180.890625 -57 C 173.035156 -34.070312 163.320312 -18.519531 151.75 -10.34375 C 140.175781 -2.175781 128.550781 1.90625 116.875 1.90625 C 107.957031 1.90625 100.789062 -0.585938 95.375 -5.578125 C 89.96875 -10.566406 86.734375 -17.835938 85.671875 -27.390625 C 79.515625 -18.679688 72.664062 -11.617188 65.125 -6.203125 C 57.59375 -0.796875 48.625 1.90625 38.21875 1.90625 Z M 58.921875 -28.984375 C 64.222656 -28.984375 69.472656 -31.476562 74.671875 -36.46875 C 79.878906 -41.457031 83.4375 -48.300781 85.34375 -57 L 100.640625 -128.984375 C 100.640625 -131.742188 99.578125 -134.445312 97.453125 -137.09375 C 95.328125 -139.75 92.035156 -141.078125 87.578125 -141.078125 C 79.085938 -141.078125 71.441406 -136.140625 64.640625 -126.265625 C 57.847656 -116.398438 52.539062 -104.515625 48.71875 -90.609375 C 44.90625 -76.703125 43 -64.441406 43 -53.828125 C 43 -43.203125 44.535156 -36.40625 47.609375 -33.4375 C 50.691406 -30.46875 54.460938 -28.984375 58.921875 -28.984375 Z M 58.921875 -28.984375 "/></g></g></g><g fill="#1a180d" fill-opacity="1"><g transform="translate(689.046684, 354.946797)"><g><path d="M 45.546875 1.90625 C 29.828125 1.90625 17.613281 -2.175781 8.90625 -10.34375 C 0.207031 -18.519531 -4.140625 -31.3125 -4.140625 -48.71875 C -4.140625 -63.375 -1.222656 -79.507812 4.609375 -97.125 C 10.453125 -114.75 19.796875 -129.984375 32.640625 -142.828125 C 45.484375 -155.671875 61.78125 -162.09375 81.53125 -162.09375 C 94.269531 -162.09375 103.34375 -159.332031 108.75 -153.8125 C 114.164062 -148.300781 116.875 -141.296875 116.875 -132.796875 C 116.875 -125.367188 115.28125 -119.632812 112.09375 -115.59375 C 108.914062 -111.5625 104.882812 -109.546875 100 -109.546875 C 96.382812 -109.546875 92.671875 -110.820312 88.859375 -113.375 C 91.398438 -120.382812 92.671875 -126.648438 92.671875 -132.171875 C 92.671875 -136.203125 91.925781 -139.382812 90.4375 -141.71875 C 88.957031 -144.050781 86.726562 -145.21875 83.75 -145.21875 C 77.382812 -145.21875 71.015625 -140.015625 64.640625 -129.609375 C 58.273438 -119.210938 53.078125 -106.582031 49.046875 -91.71875 C 45.015625 -76.851562 43 -63.476562 43 -51.59375 C 43 -41.1875 44.800781 -34.125 48.40625 -30.40625 C 52.019531 -26.695312 57.859375 -24.84375 65.921875 -24.84375 C 77.390625 -24.84375 87.207031 -27.492188 95.375 -32.796875 C 103.550781 -38.109375 112.523438 -46.175781 122.296875 -57 L 133.125 -57 C 109.550781 -17.726562 80.359375 1.90625 45.546875 1.90625 Z M 45.546875 1.90625 "/></g></g></g><g fill="#1a180d" fill-opacity="1"><g transform="translate(811.322675, 354.946797)"><g><path d="M 31.53125 1.90625 C 21.332031 1.90625 13.101562 -1.273438 6.84375 -7.640625 C 0.582031 -14.015625 -2.546875 -23.570312 -2.546875 -36.3125 C -2.546875 -41.613281 -1.695312 -48.507812 0 -57 L 19.109375 -146.5 L 8.59375 -146.5 L 11.140625 -159.234375 L 21.65625 -159.234375 L 31.203125 -203.1875 L 78.34375 -209.546875 L 67.515625 -159.234375 L 86.625 -159.234375 L 84.078125 -146.5 L 64.96875 -146.5 L 44.578125 -50.953125 C 43.734375 -47.765625 43.3125 -44.367188 43.3125 -40.765625 C 43.3125 -36.515625 44.316406 -33.488281 46.328125 -31.6875 C 48.347656 -29.882812 51.695312 -28.984375 56.375 -28.984375 C 62.53125 -28.984375 68.257812 -31.582031 73.5625 -36.78125 C 78.875 -41.976562 82.695312 -48.71875 85.03125 -57 L 98.40625 -57 C 90.550781 -34.070312 80.46875 -18.519531 68.15625 -10.34375 C 55.84375 -2.175781 43.632812 1.90625 31.53125 1.90625 Z M 31.53125 1.90625 "/></g></g></g><g fill="#1a180d" fill-opacity="1"><g transform="translate(896.342689, 354.946797)"><g><path d="M 53.1875 -176.4375 C 46.175781 -176.4375 40.226562 -178.875 35.34375 -183.75 C 30.46875 -188.632812 28.03125 -194.582031 28.03125 -201.59375 C 28.03125 -208.59375 30.46875 -214.585938 35.34375 -219.578125 C 40.226562 -224.566406 46.175781 -227.0625 53.1875 -227.0625 C 60.1875 -227.0625 66.179688 -224.566406 71.171875 -219.578125 C 76.160156 -214.585938 78.65625 -208.59375 78.65625 -201.59375 C 78.65625 -194.582031 76.160156 -188.632812 71.171875 -183.75 C 66.179688 -178.875 60.1875 -176.4375 53.1875 -176.4375 Z M 31.53125 1.90625 C 21.332031 1.90625 13.101562 -1.273438 6.84375 -7.640625 C 0.582031 -14.015625 -2.546875 -23.570312 -2.546875 -36.3125 C -2.546875 -41.613281 -1.695312 -48.507812 0 -57 L 21.65625 -159.234375 L 67.515625 -159.234375 L 44.578125 -50.953125 C 43.734375 -47.765625 43.3125 -44.367188 43.3125 -40.765625 C 43.3125 -36.515625 44.316406 -33.488281 46.328125 -31.6875 C 48.347656 -29.882812 51.695312 -28.984375 56.375 -28.984375 C 62.53125 -28.984375 68.257812 -31.582031 73.5625 -36.78125 C 78.875 -41.976562 82.695312 -48.71875 85.03125 -57 L 98.40625 -57 C 90.550781 -34.070312 80.46875 -18.519531 68.15625 -10.34375 C 55.84375 -2.175781 43.632812 1.90625 31.53125 1.90625 Z M 31.53125 1.90625 "/></g></g></g><g fill="#1a180d" fill-opacity="1"><g transform="translate(981.362702, 354.946797)"><g><path d="M 76.109375 -15.609375 C 65.285156 -3.929688 52.65625 1.90625 38.21875 1.90625 C 26.113281 1.90625 16.023438 -2.234375 7.953125 -10.515625 C -0.109375 -18.796875 -4.140625 -31.742188 -4.140625 -49.359375 C -4.140625 -65.066406 -1.007812 -81.570312 5.25 -98.875 C 11.519531 -116.1875 20.863281 -130.835938 33.28125 -142.828125 C 45.695312 -154.828125 60.503906 -160.828125 77.703125 -160.828125 C 86.410156 -160.828125 92.882812 -159.335938 97.125 -156.359375 C 101.375 -153.390625 103.5 -149.460938 103.5 -144.578125 L 103.5 -143.953125 L 106.6875 -159.234375 L 152.546875 -159.234375 L 104.140625 68.15625 L 56.046875 79.625 Z M 58.921875 -28.984375 C 63.585938 -28.984375 68.304688 -31 73.078125 -35.03125 C 77.859375 -39.0625 81.414062 -44.582031 83.75 -51.59375 L 100.640625 -130.25 C 98.941406 -137.46875 94.585938 -141.078125 87.578125 -141.078125 C 79.085938 -141.078125 71.441406 -136.140625 64.640625 -126.265625 C 57.847656 -116.398438 52.539062 -104.515625 48.71875 -90.609375 C 44.90625 -76.703125 43 -64.441406 43 -53.828125 C 43 -43.203125 44.535156 -36.40625 47.609375 -33.4375 C 50.691406 -30.46875 54.460938 -28.984375 58.921875 -28.984375 Z M 58.921875 -28.984375 "/></g></g></g><g fill="#1a180d" fill-opacity="1"><g transform="translate(1136.118199, 354.946797)"><g><path d="M 31.53125 1.90625 C 21.332031 1.90625 13.101562 -1.273438 6.84375 -7.640625 C 0.582031 -14.015625 -2.546875 -23.570312 -2.546875 -36.3125 C -2.546875 -41.613281 -1.695312 -48.507812 0 -57 L 21.65625 -159.234375 L 67.515625 -159.234375 L 44.578125 -50.953125 C 43.941406 -47.765625 43.625 -44.789062 43.625 -42.03125 C 43.625 -33.332031 46.8125 -28.984375 53.1875 -28.984375 C 59.125 -28.984375 64.21875 -31.476562 68.46875 -36.46875 C 72.71875 -41.457031 76.113281 -48.300781 78.65625 -57 L 100.3125 -159.234375 L 146.171875 -159.234375 L 123.25 -50.953125 C 122.394531 -47.765625 121.96875 -44.367188 121.96875 -40.765625 C 121.96875 -36.515625 122.976562 -33.488281 125 -31.6875 C 127.019531 -29.882812 130.363281 -28.984375 135.03125 -28.984375 C 140.976562 -28.984375 146.125 -31.53125 150.46875 -36.625 C 154.820312 -41.71875 158.273438 -48.507812 160.828125 -57 L 174.203125 -57 C 166.347656 -34.070312 156.632812 -18.519531 145.0625 -10.34375 C 133.488281 -2.175781 121.863281 1.90625 110.1875 1.90625 C 101.0625 1.90625 93.789062 -0.640625 88.375 -5.734375 C 82.957031 -10.828125 79.71875 -18.363281 78.65625 -28.34375 C 71.4375 -16.664062 63.847656 -8.703125 55.890625 -4.453125 C 47.929688 -0.210938 39.8125 1.90625 31.53125 1.90625 Z M 31.53125 1.90625 "/></g></g></g><g fill="#1a180d" fill-opacity="1"><g transform="translate(1296.923776, 354.946797)"><g><path d="M 45.546875 1.90625 C 29.828125 1.90625 17.613281 -2.175781 8.90625 -10.34375 C 0.207031 -18.519531 -4.140625 -31.3125 -4.140625 -48.71875 C -4.140625 -63.375 -1.273438 -79.507812 4.453125 -97.125 C 10.191406 -114.75 19.535156 -129.984375 32.484375 -142.828125 C 45.429688 -155.671875 61.882812 -162.09375 81.84375 -162.09375 C 105.195312 -162.09375 116.875 -151.90625 116.875 -131.53125 C 116.875 -119.632812 113.476562 -108.695312 106.6875 -98.71875 C 99.894531 -88.738281 90.867188 -80.722656 79.609375 -74.671875 C 68.359375 -68.628906 56.363281 -65.179688 43.625 -64.328125 C 43.207031 -57.960938 43 -53.71875 43 -51.59375 C 43 -41.1875 44.800781 -34.125 48.40625 -30.40625 C 52.019531 -26.695312 57.859375 -24.84375 65.921875 -24.84375 C 77.390625 -24.84375 87.207031 -27.492188 95.375 -32.796875 C 103.550781 -38.109375 112.523438 -46.175781 122.296875 -57 L 133.125 -57 C 109.550781 -17.726562 80.359375 1.90625 45.546875 1.90625 Z M 46.171875 -79.625 C 54.035156 -80.039062 61.519531 -82.796875 68.625 -87.890625 C 75.738281 -92.992188 81.472656 -99.472656 85.828125 -107.328125 C 90.179688 -115.179688 92.359375 -123.460938 92.359375 -132.171875 C 92.359375 -140.867188 89.703125 -145.21875 84.390625 -145.21875 C 76.742188 -145.21875 69.257812 -138.53125 61.9375 -125.15625 C 54.613281 -111.78125 49.359375 -96.601562 46.171875 -79.625 Z M 46.171875 -79.625 "/></g></g></g></svg>